<svg width="20" height="15" viewBox="0 0 20 15" fill="none" xmlns="http://www.w3.org/2000/svg">
<path d="M4.70099 3.14736L4.10568 3.72613C3.94915 3.87835 3.94915 4.12513 4.10568 4.27739C4.18399 4.35353 4.28663 4.39157 4.38919 4.39157C4.49179 4.39157 4.59443 4.35353 4.67266 4.27739L5.26797 3.69863C5.42454 3.5464 5.42454 3.29962 5.26797 3.14736C5.11147 2.99513 4.8576 2.99517 4.70099 3.14736Z" fill="#565656"/>
<path d="M2.69003 5.0907L2.32349 5.44707C2.16691 5.59925 2.16691 5.84607 2.32349 5.9983C2.40179 6.07443 2.50439 6.11247 2.60696 6.11247C2.70956 6.11247 2.8122 6.07443 2.89043 5.9983L3.25697 5.64193C3.41351 5.48975 3.41351 5.24293 3.25697 5.0907C3.10043 4.93852 2.8466 4.93852 2.69003 5.0907Z" fill="#565656"/>
<path d="M19.7209 4.976L15.0737 0.457891C14.9171 0.305703 14.6632 0.305703 14.5067 0.457891L12.6223 2.28999C12.5471 2.36307 12.5048 2.46222 12.5048 2.56558C12.5048 2.66895 12.5471 2.7681 12.6223 2.84118L12.7804 2.99495L12.2185 3.54125C12.0184 3.73581 11.7665 3.85003 11.4274 3.89953L8.23207 3.90386C8.01184 3.90386 7.80768 3.97246 7.64045 4.08856L7.38662 3.84182L7.54343 3.68937C7.6186 3.61629 7.66087 3.51714 7.66087 3.41377C7.66087 3.3104 7.6186 3.21125 7.54343 3.13817L5.33158 0.9878C5.17508 0.835574 4.92117 0.835574 4.7646 0.9878L0.117441 5.50587C0.0422726 5.57895 0 5.6781 0 5.78146C0 5.88483 0.0422726 5.98398 0.117441 6.05706L2.32929 8.20747C2.4076 8.2836 2.5102 8.32165 2.61276 8.32165C2.71536 8.32165 2.81801 8.2836 2.89623 8.20747L3.02852 8.07887L3.617 8.65104C3.81124 8.83984 3.96146 9.06135 4.06348 9.30929L4.08622 9.36452C4.22877 9.71112 4.43874 10.0206 4.7102 10.2845L9.21639 14.6656C9.4457 14.8885 9.74691 15 10.0482 15C10.3494 15 10.6506 14.8885 10.8799 14.6656C10.9953 14.5534 11.0818 14.4238 11.1395 14.2853C11.5706 14.4693 12.0929 14.39 12.4453 14.0473C12.5507 13.9448 12.6338 13.8263 12.6922 13.6974C13.1379 13.9319 13.7078 13.8662 14.0841 13.5003C14.4608 13.1341 14.5296 12.5801 14.2905 12.1453C14.4188 12.0905 14.5386 12.0121 14.6432 11.9105C14.6437 11.9101 14.6462 11.9076 14.6467 11.9072C15.1075 11.4591 15.1075 10.73 14.6467 10.2819L14.6176 10.2536L15.3756 9.51659C15.6011 9.29739 15.9208 8.90411 16.079 8.51965L16.1031 8.46212C16.2049 8.21489 16.3552 7.99354 16.55 7.80414L17.1385 7.23196L17.2695 7.35929C17.3447 7.43237 17.4466 7.47347 17.553 7.47347C17.6593 7.47347 17.7613 7.43237 17.8364 7.35929L19.7209 5.52719C19.8775 5.37504 19.8775 5.12822 19.7209 4.976ZM2.74504 7.25204C2.74485 7.25223 2.74466 7.25249 2.74439 7.25272L2.61273 7.38072L0.967891 5.78146L5.04811 1.81459L6.69302 3.41377L6.53687 3.56558C6.53668 3.56577 6.5364 3.56596 6.53617 3.56618L2.74504 7.25204ZM14.0811 11.3546C14.0806 11.3551 14.0781 11.3575 14.0777 11.358C13.9303 11.5012 13.6977 11.4994 13.5481 11.3539C13.5252 11.3317 11.2042 9.09088 11.2042 9.09088C11.1598 9.04775 11.1074 9.01723 11.0518 8.99859C10.9481 8.96374 10.8327 8.97101 10.7342 9.02134C10.6993 9.0392 10.6665 9.06236 10.6372 9.09088C10.5491 9.1765 10.5106 9.29204 10.5216 9.40388C10.5228 9.41631 10.5246 9.42867 10.5271 9.44095C10.532 9.46551 10.5393 9.4897 10.5491 9.51316C10.5687 9.5601 10.598 9.60406 10.6371 9.64211C10.6371 9.64211 13.5425 12.4638 13.5593 12.4757C13.6633 12.6199 13.6495 12.8205 13.5171 12.9492C13.3711 13.0912 13.1335 13.0912 12.9875 12.9492L9.8833 9.94701C9.85397 9.9185 9.82115 9.89529 9.78624 9.87744C9.63497 9.80014 9.44349 9.82334 9.31628 9.94701C9.2217 10.039 9.1847 10.1653 9.20434 10.2845C9.21721 10.3628 9.25425 10.4379 9.31628 10.4982L11.9361 13.0452C12.0235 13.1865 12.0043 13.3735 11.8783 13.496C11.8075 13.5648 11.7135 13.6027 11.6135 13.6027C11.5135 13.6027 11.4195 13.5648 11.3487 13.496L8.46467 10.7079C8.30809 10.5557 8.05427 10.5557 7.89765 10.7079C7.88789 10.7174 7.8787 10.7273 7.87014 10.7375C7.7417 10.8906 7.75088 11.1164 7.89765 11.2591L10.3708 13.6635C10.4581 13.8048 10.439 13.9918 10.3129 14.1143C10.1669 14.2562 9.92933 14.2562 9.78337 14.1143L5.27718 9.73323C5.08294 9.54439 4.93272 9.32293 4.83074 9.07498L4.80799 9.01972C4.66541 8.67315 4.45548 8.36365 4.18402 8.09974L3.59553 7.52756L6.81968 4.39301L7.21749 4.77973C7.21277 4.81797 7.21001 4.85677 7.20986 4.89621C7.20986 4.89956 7.20986 4.90295 7.20994 4.90634C7.22904 5.71083 7.91048 6.36535 8.73082 6.36535L9.481 6.36215L14.0797 10.8332C14.228 10.9773 14.228 11.2118 14.0811 11.3546ZM15.983 7.25324C15.711 7.51769 15.5009 7.82734 15.3598 8.17056L15.3356 8.22857C15.2446 8.44988 15.0279 8.75426 14.8087 8.9674L14.0525 9.70427L11.9219 7.63285C12.6629 7.61627 13.0855 7.41206 13.1104 7.39971L12.7452 6.70571L12.7492 6.70375C12.7429 6.70669 12.1229 6.98899 11.0374 6.77287L9.93042 5.69667L9.92681 5.69818C9.85227 5.62901 9.75307 5.59729 9.64966 5.59729C9.64908 5.59729 9.6485 5.59729 9.64795 5.59729L8.72919 5.59356C8.34459 5.59356 8.02408 5.27627 8.01188 4.89444C8.01459 4.77966 8.11452 4.68349 8.23269 4.68349L11.4569 4.67912C11.4751 4.67912 11.4933 4.67787 11.5113 4.67546C12.0383 4.60457 12.4551 4.41388 12.7855 4.09259L13.3475 3.54633L16.5716 6.68099L15.983 7.25324ZM17.553 6.5325L17.4222 6.40536C17.4221 6.40529 17.4221 6.40525 17.422 6.40517L13.6309 2.71939C13.6308 2.71932 13.6308 2.71928 13.6307 2.7192L13.4728 2.56562L14.7902 1.28476L18.8704 5.25159L17.553 6.5325Z" fill="#565656"/>
</svg>
