<svg width="14" height="17" viewBox="0 0 14 17" fill="none" xmlns="http://www.w3.org/2000/svg">
<path d="M10.2573 3.23495C10.2573 3.23495 12.9082 7.20246 13.0463 7.47553C14.7845 10.8916 13.8688 13.9863 10.9178 15.0947C10.5305 15.2392 7.75362 16.0906 6.41169 15.9621C2.76718 16.2753 -0.871334 13.0306 0.368522 9.21567C0.43757 9.0015 0.494609 8.78465 0.530634 8.56512L1.12504 4.91619C1.40424 3.20014 2.71014 1.77323 4.51138 1.26993C5.39099 1.02363 6.33964 0.99686 7.24627 1.20568C8.49513 1.49213 9.56988 2.23102 10.2573 3.23495Z" fill="#D38E5F"/>
<path d="M10.249 3.34506C10.7323 4.06789 11.2127 4.7934 11.693 5.51622C12.0172 6.00346 12.3385 6.49338 12.6597 6.98329C12.9058 7.36077 13.119 7.72218 13.2961 8.13178C13.9926 9.75145 14.2207 11.6308 13.2151 13.1916C12.7918 13.8475 12.1673 14.3883 11.4258 14.755C10.9005 15.0147 10.3181 15.1727 9.74466 15.3279C8.92809 15.5474 8.08751 15.7456 7.23493 15.8285C7.0488 15.8473 6.85967 15.858 6.67054 15.8553C6.59248 15.8553 6.51443 15.8473 6.43638 15.8446C6.3253 15.8419 6.21122 15.858 6.09714 15.8607C5.65884 15.8741 5.21753 15.8366 4.79124 15.7536C3.03503 15.4163 1.50397 14.3213 0.711422 12.8891C0.279123 12.102 0.0629742 11.2132 0.150034 10.3377C0.21608 9.70059 0.46225 9.09555 0.56432 8.46107C0.729434 7.43841 0.89755 6.41842 1.06266 5.39575C1.14072 4.92458 1.22478 4.46143 1.41691 4.01435C1.76515 3.20853 2.36556 2.49374 3.15211 1.98776C4.04372 1.41485 5.15149 1.13643 6.24724 1.18462C7.35201 1.23548 8.40573 1.61831 9.23731 2.27153C9.63658 2.58208 9.97282 2.94617 10.249 3.34506C10.258 3.35845 10.267 3.27011 10.267 3.26475C10.27 3.22727 10.279 3.15499 10.258 3.12286C9.69663 2.30901 8.86805 1.64508 7.87437 1.27832C6.73358 0.855328 5.41867 0.841943 4.26287 1.22745C2.53368 1.80303 1.36888 3.24333 1.1077 4.84962C0.945584 5.84551 0.783472 6.8414 0.62136 7.8373C0.591339 8.01667 0.561318 8.19604 0.5343 8.3754C0.486267 8.67792 0.399206 8.96973 0.312146 9.26421C0.0689784 10.0968 0.0329535 10.9883 0.222084 11.8316C0.579331 13.4566 1.83119 14.8621 3.49434 15.5849C4.31091 15.941 5.22354 16.1257 6.13317 16.0909C6.52344 16.0748 6.9107 16.0936 7.30097 16.0534C7.74528 16.0079 8.18358 15.9276 8.61888 15.8339C10.0689 15.5234 11.6029 15.1512 12.6357 14.1286C13.8605 12.9158 14.1007 11.1944 13.8245 9.63366C13.7404 9.1598 13.6053 8.69666 13.4342 8.24422C13.3111 7.92297 13.179 7.58833 12.9989 7.28849C12.7738 6.91904 12.5306 6.55763 12.2904 6.19354C11.657 5.22977 11.0175 4.27135 10.3781 3.31026C10.3361 3.24869 10.294 3.18444 10.252 3.12286C10.243 3.10948 10.234 3.19782 10.234 3.20318C10.237 3.23798 10.225 3.31026 10.249 3.34506Z" fill="#1D1D1B"/>
</svg>
