<svg width="40" height="44" viewBox="0 0 40 44" fill="none" xmlns="http://www.w3.org/2000/svg">
            <path d="M29.3895 6.61448C29.3895 6.61448 37.0586 18.0928 37.4581 18.8829C42.4869 28.7657 39.8379 37.7191 31.3003 40.9256C30.1799 41.3439 22.146 43.8068 18.2637 43.4351C7.7198 44.3413 -2.80672 34.9541 0.780284 23.9172C0.980045 23.2976 1.14506 22.6702 1.24929 22.0351L2.96897 11.4785C3.7767 6.5138 7.55478 2.38561 12.7659 0.92952C15.3107 0.216963 18.0552 0.139511 20.6782 0.743636C24.2913 1.57237 27.4006 3.71004 29.3895 6.61448Z" fill="#D38E5F"/>
            <path d="M29.3574 6.93139C30.7557 9.02258 32.1454 11.1215 33.535 13.2127C34.473 14.6224 35.4024 16.0397 36.3317 17.4571C37.0439 18.5492 37.6605 19.5948 38.173 20.7798C40.1879 25.4656 40.848 30.9027 37.9384 35.4182C36.7138 37.3157 34.9073 38.8803 32.762 39.9413C31.2421 40.6926 29.5572 41.1496 27.8983 41.5988C25.5359 42.2339 23.104 42.8071 20.6374 43.0472C20.0989 43.1014 19.5518 43.1324 19.0046 43.1246C18.7788 43.1246 18.553 43.1014 18.3272 43.0936C18.0058 43.0859 17.6758 43.1324 17.3457 43.1401C16.0777 43.1788 14.8009 43.0704 13.5676 42.8303C8.48676 41.8544 4.05728 38.6866 1.76438 34.543C0.513699 32.2659 -0.111639 29.6945 0.140233 27.1618C0.331309 25.3184 1.0435 23.568 1.3388 21.7324C1.81649 18.7738 2.30286 15.8229 2.78055 12.8642C3.00637 11.501 3.24955 10.1611 3.80541 8.86768C4.8129 6.53638 6.54995 4.46842 8.82548 3.00458C11.405 1.34711 14.6099 0.541611 17.78 0.681025C20.9762 0.828183 24.0247 1.93574 26.4305 3.82557C27.5856 4.72401 28.5584 5.77735 29.3574 6.93139C29.3835 6.97011 29.4095 6.71452 29.4095 6.69903C29.4182 6.5906 29.4443 6.38148 29.3835 6.28854C27.7593 3.934 25.3622 2.0132 22.4874 0.952106C19.187 -0.271633 15.3828 -0.310358 12.039 0.804948C7.03632 2.47016 3.66645 6.63707 2.91083 11.2842C2.44182 14.1654 1.97282 17.0466 1.50382 19.9278C1.41697 20.4467 1.33011 20.9657 1.25195 21.4846C1.11298 22.3598 0.861109 23.204 0.609237 24.056C-0.0942687 26.4647 -0.198492 29.0439 0.348679 31.4836C1.38222 36.1849 5.00397 40.2512 9.8156 42.3424C12.178 43.3725 14.8183 43.9069 17.4499 43.8062C18.579 43.7597 19.6994 43.8139 20.8285 43.6978C22.1139 43.5661 23.382 43.3337 24.6413 43.0627C28.8363 42.1642 33.2745 41.0876 36.2622 38.129C39.8058 34.6204 40.5006 29.6403 39.7016 25.1248C39.4584 23.7539 39.0675 22.414 38.5725 21.1051C38.2164 20.1756 37.8342 19.2075 37.3131 18.34C36.6617 17.2712 35.9582 16.2256 35.2634 15.1723C33.4308 12.384 31.5808 9.61122 29.7309 6.8307C29.6093 6.65256 29.4877 6.46667 29.3661 6.28854C29.34 6.24981 29.314 6.5054 29.314 6.52089C29.3227 6.62158 29.2879 6.8307 29.3574 6.93139Z" fill="#1D1D1B"/>
    </svg>