<svg width="20" height="20" viewBox="0 0 20 20" fill="none" xmlns="http://www.w3.org/2000/svg">
<g clip-path="url(#clip0_3148_154247)">
<path d="M17.3915 11.9506C17.2332 12.058 17.0484 12.1214 16.8566 12.1341C16.6648 12.1468 16.4731 12.1083 16.3016 12.0227C15.8991 11.7986 15.6822 11.2733 15.6822 10.5575V8.36359C15.6822 7.31042 15.2588 6.56109 14.5504 6.35767C13.3534 6.01262 12.4595 7.45719 12.1145 8.00051L9.99739 11.3763V7.25634C9.97386 6.30617 9.66022 5.73709 9.06691 5.56714C8.67486 5.45384 8.08677 5.50019 7.51438 6.36024L2.78097 13.8458C2.15117 12.6587 1.82462 11.3382 1.82959 9.99871C1.82959 5.48732 5.48876 1.81795 9.99739 1.81795C14.506 1.81795 18.1783 5.48732 18.1783 9.99871V10.0219C18.1783 10.0219 18.1783 10.0373 18.1783 10.0451C18.2227 10.918 17.9352 11.6132 17.3941 11.9506H17.3915ZM20.0052 10.0013V9.95751C19.9686 4.45989 15.494 0 9.99739 0C4.50078 0 0 4.48565 0 9.99871C0 15.5118 4.4851 20 9.99739 20C12.5256 19.9999 14.9575 19.0452 16.793 17.3323C16.9712 17.1669 17.076 16.9391 17.0848 16.6981C17.0936 16.4571 17.0057 16.2224 16.84 16.0448C16.7608 15.9584 16.665 15.8884 16.5581 15.8386C16.4513 15.7888 16.3355 15.7604 16.2174 15.7549C16.0994 15.7494 15.9814 15.7669 15.8702 15.8065C15.7591 15.8461 15.657 15.907 15.5698 15.9856C14.7796 16.7241 13.846 17.2976 12.8252 17.6718C11.8044 18.046 10.7173 18.2131 9.62933 18.1631C8.54133 18.113 7.47481 17.8469 6.49379 17.3807C5.51278 16.9145 4.63752 16.2578 3.92054 15.45L8.18087 8.70349V11.8167C8.18087 13.3127 8.76895 13.7968 9.26294 13.9385C9.75693 14.0801 10.5123 13.9822 11.3042 12.7153L13.6566 8.96356C13.7297 8.84254 13.8003 8.73954 13.863 8.64942V10.5575C13.863 11.9557 14.4328 13.0733 15.4313 13.6243C15.8853 13.8658 16.3968 13.9824 16.9124 13.962C17.4279 13.9416 17.9283 13.785 18.3612 13.5084C19.459 12.8055 20.0575 11.5334 19.9948 10.0013H20.0052Z" fill="white"/>
</g>
<defs>
<clipPath id="clip0_3148_154247">
<rect width="20" height="20" fill="white"/>
</clipPath>
</defs>
</svg>
