<svg width="18" height="20" viewBox="0 0 18 20" fill="none" xmlns="http://www.w3.org/2000/svg">
<g clip-path="url(#clip0_3148_154245)">
<path fill-rule="evenodd" clip-rule="evenodd" d="M6.68687 1.14137C5.45514 1.76133 4.44742 2.28594 4.44764 2.30728C4.44818 2.36235 7.40382 3.80864 7.50872 3.80511C7.55644 3.80357 7.90262 3.6496 8.27797 3.463L8.96052 3.12379L9.70596 3.49401L10.4514 3.86431L11.6721 3.33431C13.5115 2.53568 13.7025 2.44816 13.6726 2.41876C13.6329 2.37975 12.9731 2.03729 11.1831 1.12677C10.3181 0.686699 9.47845 0.255228 9.31726 0.16792C9.1561 0.0806122 9.00223 0.0103787 8.97535 0.0117382C8.94848 0.0130977 7.91862 0.521438 6.68687 1.14137ZM1.28453 3.8444L0.00231326 4.48433V7.29289C0.00231326 8.83762 0.01915 10.1014 0.0398024 10.1014C0.0603832 10.1014 0.691235 9.8372 1.44166 9.51426L2.80608 8.92709V5.96668L3.47282 6.31767C3.98661 6.58788 4.5007 6.85755 5.0151 7.12666L5.89061 7.58468L6.28019 7.41447C6.52452 7.30754 6.76836 7.19958 7.01171 7.09058C7.19975 7.00597 7.66135 6.80508 8.03746 6.64409C8.41357 6.48302 8.76172 6.32105 8.81109 6.28414C8.87667 6.2351 8.077 5.80813 5.85333 4.70481C4.17718 3.87313 2.75199 3.19531 2.68627 3.19856C2.62054 3.20181 1.98976 3.4924 1.28453 3.8444ZM13.9037 4.02411C13.0304 4.40502 12.3153 4.7319 12.3145 4.75055C12.3137 4.76916 12.7897 5.04261 13.3722 5.35811C13.9548 5.67367 14.4314 5.94873 14.4314 5.96945C14.4314 5.99012 13.9159 6.23144 13.286 6.50583C12.6559 6.78015 11.0635 7.47502 9.74708 8.05L5.33629 9.9764C4.22676 10.461 3.22664 10.8978 3.11382 10.9472C0.847536 11.9385 0.224625 12.2136 0.139082 12.2608C0.0530619 12.3083 0.033578 12.5845 0.0182676 13.9705L0 15.6237L1.14661 16.1882L2.2932 16.7527L3.88313 16.0594C4.75761 15.6781 5.47305 15.3461 5.47305 15.3217C5.47305 15.2973 5.31146 15.1956 5.11405 15.0955C4.91654 14.9955 4.50883 14.774 4.20794 14.6032C3.90707 14.4325 3.60706 14.2758 3.5412 14.255C3.47535 14.2343 3.42243 14.1981 3.42351 14.1744C3.4246 14.1508 4.12473 13.8295 4.97926 13.4603C6.63901 12.7433 7.90918 12.1907 10.6361 10.9992C11.8554 10.4665 13.0749 9.93412 14.2946 9.40209C15.3665 8.9346 16.6128 8.38861 17.0642 8.18879L17.8848 7.82547L17.903 6.15349L17.9214 4.48157L16.7584 3.90482C16.1188 3.58764 15.572 3.32889 15.5434 3.32984C15.5147 3.33071 14.7769 3.6431 13.9037 4.02411ZM17.5732 10.056C17.4018 10.1369 17.0633 10.2883 16.821 10.3925C16.5787 10.4967 16.1188 10.6971 15.7991 10.8381L15.2178 11.0943L15.2045 12.5621C15.1972 13.3694 15.1664 14.0264 15.1362 14.0221C15.0674 14.0122 13.9779 13.4724 12.8828 12.9054C12.0924 12.4962 12.0428 12.4799 11.8571 12.5688C11.7497 12.6202 11.1079 12.8983 10.4309 13.1869C9.7539 13.4755 9.17792 13.7304 9.15083 13.7535C9.12381 13.7766 10.4864 14.4901 12.1788 15.3393L15.2559 16.8832L16.5704 16.2262C17.2933 15.8649 17.908 15.5353 17.9363 15.4939C18 15.4007 17.9945 9.89614 17.9307 9.90359C17.9055 9.90651 17.7446 9.97511 17.5732 10.056ZM10.2942 16.5169C10.0661 16.6116 9.83819 16.7065 9.61031 16.8015C8.92215 17.0891 9.05701 17.0987 8.23831 16.7049C7.69302 16.4426 7.45797 16.3617 7.35595 16.4009C7.27942 16.4304 6.62081 16.7167 5.89225 17.0372C5.16374 17.3576 4.54241 17.6198 4.5115 17.6198C4.20584 17.6198 4.71399 17.9131 6.67485 18.8688L8.97447 19.9896L9.94203 19.528C10.4742 19.2742 11.5476 18.7658 12.3273 18.3984C13.1071 18.0309 13.7354 17.7206 13.7236 17.7089C13.7118 17.6973 13.0584 17.3731 12.2717 16.9886L10.8412 16.2895L10.2942 16.5169Z" fill="#05A3C9"/>
</g>
<defs>
<clipPath id="clip0_3148_154245">
<rect width="18" height="20" fill="white"/>
</clipPath>
</defs>
</svg>
