<svg width="20" height="20" viewBox="0 0 20 20" fill="none" xmlns="http://www.w3.org/2000/svg">
<path fill-rule="evenodd" clip-rule="evenodd" d="M19.9983 7.98646C19.9983 8.69266 19.9139 9.51699 19.7451 10.4585C18.6485 16.1425 15.3761 18.985 9.92778 18.985H6.31518L6.32434 18.944L7.15999 15.0244H9.70041C12.6525 15.0244 14.4401 13.3513 15.064 10.0047C15.1084 9.78982 15.1445 9.57336 15.1722 9.35574L19.9078 6.63135C19.9675 7.06057 19.9984 7.51204 19.9984 7.98646M18.2818 3.04355L14.034 5.487C13.4419 5.0939 12.6343 4.89689 11.6127 4.89689H4.75781L4.77841 4.7984L5.58902 1.01367H12.7013C13.6952 1.01367 14.5924 1.12656 15.3957 1.35325C16.4628 1.65511 17.3611 2.15474 18.0933 2.85361C18.1582 2.9163 18.22 2.97882 18.2818 3.04355" fill="#6E45B7"/>
<path fill-rule="evenodd" clip-rule="evenodd" d="M11.4954 8.26953L10.8661 12.1906H7.9238L6.48512 18.9438L6.47576 18.9847H0L2.43138 15.7121L4.02679 8.26953H11.4954Z" fill="#00D8CD"/>
</svg>
