<svg width="20" height="20" viewBox="0 0 20 20" fill="none" xmlns="http://www.w3.org/2000/svg">
<path d="M4.15611 9.50618C4.15613 9.39434 4.1782 9.28361 4.22105 9.18034C4.26391 9.07707 4.3267 8.98329 4.40582 8.9044C4.48495 8.82551 4.57885 8.76306 4.68213 8.72062C4.78541 8.67819 4.89604 8.65662 5.00767 8.65714L6.41947 8.66176C6.64458 8.66176 6.86046 8.75135 7.01963 8.91083C7.17881 9.0703 7.26823 9.28659 7.26823 9.51212V14.8609C7.42724 14.8137 7.63074 14.7634 7.85467 14.7105C8.00981 14.674 8.14807 14.586 8.24704 14.4608C8.34601 14.3356 8.39988 14.1806 8.39991 14.021V7.38663C8.39991 7.16109 8.48933 6.94478 8.6485 6.78528C8.80767 6.62578 9.02356 6.53615 9.24868 6.53611H10.6648C10.8899 6.53615 11.1058 6.62578 11.2649 6.78528C11.4241 6.94478 11.5135 7.16109 11.5135 7.38663V13.5444C11.5135 13.5444 11.8678 13.4007 12.2127 13.2548C12.3408 13.2005 12.4502 13.1096 12.5271 12.9934C12.604 12.8772 12.6451 12.741 12.6452 12.6016V5.26065C12.6452 5.03515 12.7346 4.81888 12.8937 4.65941C13.0529 4.49995 13.2687 4.41033 13.4938 4.41029H14.9084C15.1334 4.41051 15.349 4.5002 15.508 4.65965C15.667 4.8191 15.7563 5.03526 15.7563 5.26065V11.3056C16.9828 10.4151 18.2257 9.34406 19.212 8.05622C19.3551 7.86929 19.4498 7.64977 19.4877 7.41725C19.5255 7.18473 19.5053 6.94644 19.4289 6.72365C18.9723 5.4076 18.2465 4.20154 17.298 3.18263C16.3495 2.16373 15.1991 1.35443 13.9205 0.806519C12.6419 0.258606 11.2632 -0.0158528 9.87261 0.000707143C8.48204 0.0172671 7.11024 0.32448 5.84498 0.902687C4.57973 1.48089 3.44888 2.31736 2.5248 3.35856C1.60073 4.39977 0.903777 5.62277 0.478547 6.94932C0.053318 8.27587 -0.0908244 9.67675 0.0553434 11.0623C0.201511 12.4479 0.634771 13.7876 1.3274 14.9958C1.44807 15.2042 1.6256 15.3738 1.83914 15.4846C2.05268 15.5955 2.29336 15.6429 2.5329 15.6215C2.80049 15.5979 3.13367 15.5645 3.52979 15.518C3.70219 15.4983 3.86136 15.4158 3.97698 15.2862C4.09259 15.1566 4.15658 14.9889 4.15677 14.815V9.50618" fill="#22335A"/>
<path d="M4.125 18.0841C5.61609 19.1709 7.3782 19.8232 9.21638 19.9689C11.0546 20.1146 12.8971 19.748 14.5403 18.9097C16.1834 18.0713 17.563 16.7939 18.5265 15.2188C19.4899 13.6436 19.9997 11.8322 19.9994 9.98476C19.9994 9.75364 19.9886 9.52615 19.9733 9.29932C16.3214 14.7562 9.57843 17.3073 4.125 18.0841Z" fill="#979695"/>
</svg>
