<svg width="20" height="14" viewBox="0 0 20 14" fill="none" xmlns="http://www.w3.org/2000/svg">
<path d="M19.6799 9.5223L15.3586 2.03017C14.4045 0.472819 12.1036 0.444759 11.1916 2.10032L6.64581 9.90111C5.804 11.3322 6.84223 13.1281 8.53988 13.1281H17.6315C19.3431 13.1281 20.6199 11.2761 19.6799 9.5223Z" fill="#00B897"/>
<path d="M13.4379 10.1113L13.1713 9.6483C12.9188 9.21336 12.3716 8.28737 12.3716 8.28737L8.70971 1.93169C7.98013 0.823305 6.49293 0.528671 5.38455 1.25824C5.03379 1.48272 4.75319 1.80542 4.5708 2.18423L0.319645 9.55009C-0.339774 10.6865 0.0530721 12.1457 1.20355 12.8051C1.56833 13.0155 1.97521 13.1278 2.39612 13.1278H17.5908C15.2478 13.1418 14.5042 11.9212 13.4379 10.1113Z" fill="#76FCB2"/>
<path d="M13.4371 10.1116L13.1706 9.64864C12.918 9.2137 12.3708 8.28771 12.3708 8.28771L10.0138 4.13477L6.61846 9.91521C5.77665 11.3463 6.81489 13.1422 8.51254 13.1422H17.5901C15.233 13.1281 14.5034 11.9215 13.4371 10.1116Z" fill="url(#paint0_linear_3148_154328)"/>
<defs>
<linearGradient id="paint0_linear_3148_154328" x1="5.42138" y1="7.2896" x2="15.9258" y2="11.1703" gradientUnits="userSpaceOnUse">
<stop stop-color="#53E57A" stop-opacity="0"/>
<stop offset="1" stop-color="#00A977"/>
</linearGradient>
</defs>
</svg>
