<svg width="20" height="20" viewBox="0 0 20 20" fill="none" xmlns="http://www.w3.org/2000/svg">
<path d="M4.16351 9.51072C4.16351 9.04912 4.54271 8.66992 5.00351 8.66992H6.42031C6.88191 8.66992 7.27711 9.04912 7.27711 9.52752V14.8707C7.44191 14.8211 7.63951 14.7715 7.87071 14.7219C8.18351 14.6395 8.41471 14.3595 8.41471 14.0291V7.39952C8.41471 6.93792 8.79391 6.54192 9.27151 6.54192H10.6883C11.1499 6.54192 11.5451 6.92112 11.5451 7.39952V13.5515C11.5451 13.5515 11.8915 13.4027 12.2371 13.2547C12.5011 13.1395 12.6659 12.8923 12.6659 12.5947V5.25632C12.6659 4.79472 13.0451 4.39872 13.5067 4.39872H14.9235C15.3851 4.39872 15.7643 4.77792 15.7643 5.25632V11.3091C16.9835 10.4187 18.2363 9.34672 19.2251 8.06032C19.5219 7.68112 19.6043 7.18592 19.4395 6.72432C17.6267 1.51312 11.9259 -1.25808 6.71871 0.556319C1.51151 2.37072 -1.25649 8.07632 0.555506 13.2883C0.753106 13.8819 1.01711 14.4427 1.32991 14.9867C1.57711 15.4155 2.03871 15.6627 2.53311 15.6131C2.79711 15.5963 3.12671 15.5635 3.53791 15.5139C3.90031 15.4811 4.16431 15.1675 4.16431 14.8043L4.16351 9.51072Z" fill="#3D67CA"/>
<path d="M4.12988 18.0865C8.59548 21.3353 14.8411 20.3457 18.0867 15.8769C19.3227 14.1617 19.9979 12.1001 19.9979 9.98968C19.9979 9.75848 19.9811 9.52808 19.9651 9.29688C16.3243 14.7553 9.58428 17.3113 4.12988 18.0865Z" fill="#E0E0E0"/>
</svg>
