<svg width="150" height="87" viewBox="0 0 150 87" fill="none" xmlns="http://www.w3.org/2000/svg">
<g style="mix-blend-mode:hard-light" filter="url(#filter0_f_2_14192)">
<rect x="24" y="24" width="102" height="39" fill="#42FF00" fill-opacity="0.3"/>
</g>
<g style="mix-blend-mode:hard-light" filter="url(#filter1_f_2_14192)">
<rect x="26.2" y="25.6927" width="98.1071" height="35.6146" rx="6.30729" stroke="#42FF00" stroke-width="3.38542"/>
</g>
<g style="mix-blend-mode:hard-light" filter="url(#filter2_f_2_14192)">
<rect x="26.7209" y="26.2135" width="97.0655" height="34.5729" rx="5.78646" stroke="#42FF00" stroke-width="4.42708"/>
</g>
<g style="mix-blend-mode:hard-light" filter="url(#filter3_ddi_2_14192)">
<rect x="26.2" y="25.6927" width="98.1071" height="35.6146" rx="6.30729" stroke="#42FF00" stroke-opacity="0.2" stroke-width="3.38542"/>
</g>
<g filter="url(#filter4_f_2_14192)">
<rect x="25.549" y="25.0417" width="99.4092" height="36.9167" rx="6.95833" stroke="#42FF00" stroke-width="2.08333"/>
</g>
<g filter="url(#filter5_f_2_14192)">
<rect x="25.0282" y="24.5208" width="100.451" height="37.9583" rx="7.47917" stroke="white" stroke-width="1.04167"/>
</g>
<path d="M57.6391 51.114C59.5991 51.114 61.3791 50.314 62.6791 49.034L59.5391 45.894C59.0591 46.394 58.3791 46.694 57.6391 46.694C56.1391 46.694 54.9191 45.474 54.9191 43.994C54.9191 42.494 56.1391 41.274 57.6391 41.274C58.3791 41.274 59.0591 41.594 59.5391 42.074L62.6791 38.954C61.3791 37.654 59.5991 36.854 57.6391 36.854C53.6991 36.854 50.4991 40.054 50.4991 43.994C50.4991 47.934 53.6991 51.114 57.6391 51.114ZM67.1134 50.834V37.134H63.4734V50.834H67.1134ZM72.7525 51.114C73.7725 51.114 74.4725 50.794 74.9925 50.294V50.834H78.6325V40.994H74.9925V41.554C74.4725 41.034 73.7725 40.714 72.7525 40.714C70.3325 40.714 68.2125 43.054 68.2125 45.914C68.2125 48.794 70.3325 51.114 72.7525 51.114ZM73.7725 47.494C72.9125 47.494 72.2125 46.794 72.2125 45.914C72.2125 45.054 72.9125 44.354 73.7725 44.354C74.2725 44.354 74.6925 44.554 74.9925 44.914V46.914C74.6925 47.274 74.2725 47.494 73.7725 47.494ZM83.6759 40.134V37.134H80.0359V40.134H83.6759ZM83.6759 50.834V40.994H80.0359V50.834H83.6759ZM88.715 50.834V44.954C88.855 44.654 89.175 44.454 89.515 44.454C90.015 44.454 90.335 44.774 90.335 45.314V50.834H93.995V45.194V44.934C94.135 44.654 94.435 44.454 94.775 44.454C95.295 44.454 95.615 44.774 95.615 45.314V50.834H99.255V44.094C99.255 41.854 97.775 40.694 96.035 40.694C94.815 40.694 93.915 41.194 93.355 41.894C92.795 41.094 91.915 40.694 90.995 40.694C89.975 40.694 89.195 41.134 88.715 41.754V40.994H85.075V50.834H88.715Z" fill="#42FF00"/>
<defs>
<filter id="filter0_f_2_14192" x="0.559999" y="0.559999" width="148.88" height="85.88" filterUnits="userSpaceOnUse" color-interpolation-filters="sRGB">
<feFlood flood-opacity="0" result="BackgroundImageFix"/>
<feBlend mode="normal" in="SourceGraphic" in2="BackgroundImageFix" result="shape"/>
<feGaussianBlur stdDeviation="11.72" result="effect1_foregroundBlur_2_14192"/>
</filter>
<filter id="filter1_f_2_14192" x="1.06982" y="0.5625" width="148.367" height="85.875" filterUnits="userSpaceOnUse" color-interpolation-filters="sRGB">
<feFlood flood-opacity="0" result="BackgroundImageFix"/>
<feBlend mode="normal" in="SourceGraphic" in2="BackgroundImageFix" result="shape"/>
<feGaussianBlur stdDeviation="11.7188" result="effect1_foregroundBlur_2_14192"/>
</filter>
<filter id="filter2_f_2_14192" x="16.6948" y="16.1875" width="117.117" height="54.625" filterUnits="userSpaceOnUse" color-interpolation-filters="sRGB">
<feFlood flood-opacity="0" result="BackgroundImageFix"/>
<feBlend mode="normal" in="SourceGraphic" in2="BackgroundImageFix" result="shape"/>
<feGaussianBlur stdDeviation="3.90625" result="effect1_foregroundBlur_2_14192"/>
</filter>
<filter id="filter3_ddi_2_14192" x="14.3511" y="21.6562" width="121.805" height="59.3125" filterUnits="userSpaceOnUse" color-interpolation-filters="sRGB">
<feFlood flood-opacity="0" result="BackgroundImageFix"/>
<feColorMatrix in="SourceAlpha" type="matrix" values="0 0 0 0 0 0 0 0 0 0 0 0 0 0 0 0 0 0 127 0" result="hardAlpha"/>
<feOffset dy="3.38542"/>
<feGaussianBlur stdDeviation="1.30208"/>
<feColorMatrix type="matrix" values="0 0 0 0 0.224 0 0 0 0 0.15 0 0 0 0 0 0 0 0 0.7 0"/>
<feBlend mode="multiply" in2="BackgroundImageFix" result="effect1_dropShadow_2_14192"/>
<feColorMatrix in="SourceAlpha" type="matrix" values="0 0 0 0 0 0 0 0 0 0 0 0 0 0 0 0 0 0 127 0" result="hardAlpha"/>
<feOffset dy="7.8125"/>
<feGaussianBlur stdDeviation="5.07812"/>
<feColorMatrix type="matrix" values="0 0 0 0 0.56 0 0 0 0 0.44 0 0 0 0 0 0 0 0 1 0"/>
<feBlend mode="color-dodge" in2="effect1_dropShadow_2_14192" result="effect2_dropShadow_2_14192"/>
<feBlend mode="normal" in="SourceGraphic" in2="effect2_dropShadow_2_14192" result="shape"/>
<feColorMatrix in="SourceAlpha" type="matrix" values="0 0 0 0 0 0 0 0 0 0 0 0 0 0 0 0 0 0 127 0" result="hardAlpha"/>
<feOffset dx="-0.338542" dy="0.677083"/>
<feGaussianBlur stdDeviation="0.169271"/>
<feComposite in2="hardAlpha" operator="arithmetic" k2="-1" k3="1"/>
<feColorMatrix type="matrix" values="0 0 0 0 1 0 0 0 0 1 0 0 0 0 1 0 0 0 0.5 0"/>
<feBlend mode="normal" in2="shape" result="effect3_innerShadow_2_14192"/>
</filter>
<filter id="filter4_f_2_14192" x="23.9865" y="23.4792" width="102.534" height="40.0417" filterUnits="userSpaceOnUse" color-interpolation-filters="sRGB">
<feFlood flood-opacity="0" result="BackgroundImageFix"/>
<feBlend mode="normal" in="SourceGraphic" in2="BackgroundImageFix" result="shape"/>
<feGaussianBlur stdDeviation="0.260417" result="effect1_foregroundBlur_2_14192"/>
</filter>
<filter id="filter5_f_2_14192" x="24.1601" y="23.6528" width="102.187" height="39.6944" filterUnits="userSpaceOnUse" color-interpolation-filters="sRGB">
<feFlood flood-opacity="0" result="BackgroundImageFix"/>
<feBlend mode="normal" in="SourceGraphic" in2="BackgroundImageFix" result="shape"/>
<feGaussianBlur stdDeviation="0.173611" result="effect1_foregroundBlur_2_14192"/>
</filter>
</defs>
</svg>
