<svg width="20" height="22" viewBox="0 0 20 22" fill="none" xmlns="http://www.w3.org/2000/svg">
<g clip-path="url(#clip0_408_111172)">
<path d="M17.3915 12.6535C17.2332 12.7673 17.0484 12.8345 16.8566 12.8479C16.6648 12.8613 16.4731 12.8206 16.3016 12.7299C15.8991 12.4927 15.6822 11.9365 15.6822 11.1785V8.85557C15.6822 7.74044 15.2588 6.94704 14.5504 6.73165C13.3534 6.3663 12.4595 7.89585 12.1145 8.47113L9.99739 12.0455V7.68318C9.97386 6.67712 9.66022 6.07457 9.06691 5.89462C8.67486 5.77466 8.08677 5.82373 7.51438 6.73437L2.78097 14.6602C2.15117 13.4033 1.82462 12.0051 1.82959 10.5869C1.82959 5.8101 5.48876 1.92489 9.99739 1.92489C14.506 1.92489 18.1783 5.8101 18.1783 10.5869V10.6114C18.1783 10.6114 18.1783 10.6278 18.1783 10.6359C18.2227 11.5602 17.9352 12.2964 17.3941 12.6535H17.3915ZM20.0052 10.5896V10.5432C19.9686 4.72224 15.494 0 9.99739 0C4.50078 0 0 4.74951 0 10.5869C0 16.4242 4.4851 21.1765 9.99739 21.1765C12.5256 21.1763 14.9575 20.1655 16.793 18.3519C16.9712 18.1768 17.076 17.9355 17.0848 17.6803C17.0936 17.4251 17.0057 17.1766 16.84 16.9886C16.7608 16.8972 16.665 16.823 16.5581 16.7703C16.4513 16.7176 16.3355 16.6875 16.2174 16.6817C16.0994 16.6758 15.9814 16.6944 15.8702 16.7363C15.7591 16.7782 15.657 16.8427 15.5698 16.9259C14.7796 17.7078 13.846 18.3151 12.8252 18.7113C11.8044 19.1075 10.7173 19.2844 9.62933 19.2315C8.54133 19.1785 7.47481 18.8967 6.49379 18.4031C5.51278 17.9095 4.63752 17.2141 3.92054 16.3588L8.18087 9.21546V12.5118C8.18087 14.0958 8.76895 14.6084 9.26294 14.7584C9.75693 14.9083 10.5123 14.8047 11.3042 13.4633L13.6566 9.49083C13.7297 9.36269 13.8003 9.25363 13.863 9.1582V11.1785C13.863 12.659 14.4328 13.8423 15.4313 14.4257C15.8853 14.6814 16.3968 14.8049 16.9124 14.7833C17.4279 14.7617 17.9283 14.5958 18.3612 14.303C19.459 13.5587 20.0575 12.2118 19.9948 10.5896H20.0052Z" fill="white"/>
</g>
<defs>
<clipPath id="clip0_408_111172">
<rect width="20" height="21.1765" fill="white"/>
</clipPath>
</defs>
</svg>
