<svg width="150" height="89" viewBox="0 0 150 89" fill="none" xmlns="http://www.w3.org/2000/svg">
<g style="mix-blend-mode:hard-light" filter="url(#filter0_f_2_14119)">
<rect x="24" y="24" width="102" height="41" fill="#FF922D" fill-opacity="0.3"/>
</g>
<g style="mix-blend-mode:hard-light" filter="url(#filter1_f_2_14119)">
<rect x="26.2" y="25.6927" width="98.1071" height="37.6146" rx="6.30729" stroke="#FFAB2D" stroke-width="3.38542"/>
</g>
<g style="mix-blend-mode:hard-light" filter="url(#filter2_f_2_14119)">
<rect x="26.7209" y="26.2135" width="97.0655" height="36.5729" rx="5.78646" stroke="#FFAB2D" stroke-width="4.42708"/>
</g>
<g style="mix-blend-mode:hard-light" filter="url(#filter3_ddi_2_14119)">
<rect x="26.2" y="25.6927" width="98.1071" height="37.6146" rx="6.30729" stroke="#FFC940" stroke-opacity="0.2" stroke-width="3.38542"/>
</g>
<g filter="url(#filter4_f_2_14119)">
<rect x="25.549" y="25.0417" width="99.4092" height="38.9167" rx="6.95833" stroke="#FFD56A" stroke-width="2.08333"/>
</g>
<g filter="url(#filter5_f_2_14119)">
<rect x="25.0282" y="24.5208" width="100.451" height="39.9583" rx="7.47917" stroke="white" stroke-width="1.04167"/>
</g>
<path d="M57.6642 51.6902C60.6042 51.6902 62.3042 49.5902 62.3042 47.1702C62.3042 45.5502 61.6642 44.5502 61.1642 43.7502C60.8442 43.2302 60.5842 42.8102 60.5842 42.3702C60.5842 41.5702 61.1242 41.0702 61.8242 41.0702C61.8642 41.0702 61.8842 41.0702 61.9842 41.0902V37.7302C61.6242 37.5902 61.0842 37.5302 60.6442 37.5302C57.6842 37.5302 56.2042 39.3702 56.2042 41.9502C56.2042 43.1902 56.7042 44.1102 57.1442 44.9102C57.5042 45.5302 57.8042 46.1102 57.8042 46.7102C57.8042 47.5302 57.1642 48.1702 56.3242 48.1702C56.2042 48.1702 56.0442 48.1502 55.9242 48.0902V51.4902C56.3842 51.6102 56.9442 51.6902 57.6642 51.6902ZM67.3317 51.4502V44.8502H68.4517V41.6102H67.3317V37.9102L63.6717 39.4702V41.6102H62.7117V44.8502H63.6717V51.4502H67.3317ZM73.5845 51.7302C74.6045 51.7302 75.3045 51.4102 75.8245 50.9102V51.4502H79.4645V41.6102H75.8245V42.1702C75.3045 41.6502 74.6045 41.3302 73.5845 41.3302C71.1645 41.3302 69.0445 43.6702 69.0445 46.5302C69.0445 49.4102 71.1645 51.7302 73.5845 51.7302ZM74.6045 48.1102C73.7445 48.1102 73.0445 47.4102 73.0445 46.5302C73.0445 45.6702 73.7445 44.9702 74.6045 44.9702C75.1045 44.9702 75.5245 45.1702 75.8245 45.5302V47.5302C75.5245 47.8902 75.1045 48.1102 74.6045 48.1102ZM84.508 51.4502V48.9302L84.548 48.8302L86.268 51.4502H90.668L87.228 46.2702L90.388 41.6102H85.988L84.508 43.8502V37.7502H80.868V51.4502H84.508ZM95.0648 51.7302C96.5048 51.7302 97.8048 51.1502 98.7448 50.2302L96.4448 47.9302C96.1248 48.2702 95.6248 48.4502 95.1248 48.4502C94.3648 48.4502 93.7448 48.0302 93.4648 47.4302H100.245C100.285 47.1502 100.285 46.9102 100.285 46.6302C100.285 43.5502 97.8648 41.3302 95.0648 41.3302C92.1848 41.3302 89.8648 43.6702 89.8648 46.5302C89.8648 49.4102 92.1848 51.7302 95.0648 51.7302ZM93.4648 45.6702C93.7448 45.0702 94.3448 44.6502 95.0848 44.6502C95.8248 44.6502 96.4048 45.0702 96.7048 45.6702H93.4648Z" fill="#FF6B00"/>
<defs>
<filter id="filter0_f_2_14119" x="0.559999" y="0.559999" width="148.88" height="87.88" filterUnits="userSpaceOnUse" color-interpolation-filters="sRGB">
<feFlood flood-opacity="0" result="BackgroundImageFix"/>
<feBlend mode="normal" in="SourceGraphic" in2="BackgroundImageFix" result="shape"/>
<feGaussianBlur stdDeviation="11.72" result="effect1_foregroundBlur_2_14119"/>
</filter>
<filter id="filter1_f_2_14119" x="1.06982" y="0.5625" width="148.368" height="87.875" filterUnits="userSpaceOnUse" color-interpolation-filters="sRGB">
<feFlood flood-opacity="0" result="BackgroundImageFix"/>
<feBlend mode="normal" in="SourceGraphic" in2="BackgroundImageFix" result="shape"/>
<feGaussianBlur stdDeviation="11.7188" result="effect1_foregroundBlur_2_14119"/>
</filter>
<filter id="filter2_f_2_14119" x="16.6948" y="16.1875" width="117.118" height="56.625" filterUnits="userSpaceOnUse" color-interpolation-filters="sRGB">
<feFlood flood-opacity="0" result="BackgroundImageFix"/>
<feBlend mode="normal" in="SourceGraphic" in2="BackgroundImageFix" result="shape"/>
<feGaussianBlur stdDeviation="3.90625" result="effect1_foregroundBlur_2_14119"/>
</filter>
<filter id="filter3_ddi_2_14119" x="14.3511" y="21.6562" width="121.805" height="61.3125" filterUnits="userSpaceOnUse" color-interpolation-filters="sRGB">
<feFlood flood-opacity="0" result="BackgroundImageFix"/>
<feColorMatrix in="SourceAlpha" type="matrix" values="0 0 0 0 0 0 0 0 0 0 0 0 0 0 0 0 0 0 127 0" result="hardAlpha"/>
<feOffset dy="3.38542"/>
<feGaussianBlur stdDeviation="1.30208"/>
<feColorMatrix type="matrix" values="0 0 0 0 0.224 0 0 0 0 0.15 0 0 0 0 0 0 0 0 0.7 0"/>
<feBlend mode="multiply" in2="BackgroundImageFix" result="effect1_dropShadow_2_14119"/>
<feColorMatrix in="SourceAlpha" type="matrix" values="0 0 0 0 0 0 0 0 0 0 0 0 0 0 0 0 0 0 127 0" result="hardAlpha"/>
<feOffset dy="7.8125"/>
<feGaussianBlur stdDeviation="5.07812"/>
<feColorMatrix type="matrix" values="0 0 0 0 0.56 0 0 0 0 0.44 0 0 0 0 0 0 0 0 1 0"/>
<feBlend mode="color-dodge" in2="effect1_dropShadow_2_14119" result="effect2_dropShadow_2_14119"/>
<feBlend mode="normal" in="SourceGraphic" in2="effect2_dropShadow_2_14119" result="shape"/>
<feColorMatrix in="SourceAlpha" type="matrix" values="0 0 0 0 0 0 0 0 0 0 0 0 0 0 0 0 0 0 127 0" result="hardAlpha"/>
<feOffset dx="-0.338542" dy="0.677083"/>
<feGaussianBlur stdDeviation="0.169271"/>
<feComposite in2="hardAlpha" operator="arithmetic" k2="-1" k3="1"/>
<feColorMatrix type="matrix" values="0 0 0 0 1 0 0 0 0 1 0 0 0 0 1 0 0 0 0.5 0"/>
<feBlend mode="normal" in2="shape" result="effect3_innerShadow_2_14119"/>
</filter>
<filter id="filter4_f_2_14119" x="23.9865" y="23.4792" width="102.534" height="42.0417" filterUnits="userSpaceOnUse" color-interpolation-filters="sRGB">
<feFlood flood-opacity="0" result="BackgroundImageFix"/>
<feBlend mode="normal" in="SourceGraphic" in2="BackgroundImageFix" result="shape"/>
<feGaussianBlur stdDeviation="0.260417" result="effect1_foregroundBlur_2_14119"/>
</filter>
<filter id="filter5_f_2_14119" x="24.1601" y="23.6528" width="102.187" height="41.6944" filterUnits="userSpaceOnUse" color-interpolation-filters="sRGB">
<feFlood flood-opacity="0" result="BackgroundImageFix"/>
<feBlend mode="normal" in="SourceGraphic" in2="BackgroundImageFix" result="shape"/>
<feGaussianBlur stdDeviation="0.173611" result="effect1_foregroundBlur_2_14119"/>
</filter>
</defs>
</svg>
