<svg width="40" height="40" viewBox="0 0 40 40" fill="none" xmlns="http://www.w3.org/2000/svg">
<path d="M20 40C31.0457 40 40 31.0457 40 20C40 8.9543 31.0457 0 20 0C8.9543 0 0 8.9543 0 20C0 31.0457 8.9543 40 20 40Z" fill="#F3BA2F"/>
<path d="M15.8164 18.2812L20 14.0977L24.1836 18.2852L26.6172 15.8516L20 9.23047L13.3828 15.8477L15.8164 18.2812Z" fill="white"/>
<path d="M9.23047 19.998L11.6639 17.5646L14.0974 19.998L11.664 22.4314L9.23047 19.998Z" fill="white"/>
<path d="M15.8164 21.7187L20 25.9023L24.1836 21.7148L26.6211 24.1484H26.6172L20 30.7695L13.3828 24.1523L13.3789 24.1484L15.8164 21.7187Z" fill="white"/>
<path d="M25.9004 20.002L28.3338 17.5685L30.7673 20.0019L28.3339 22.4354L25.9004 20.002Z" fill="white"/>
<path d="M22.4688 20L20 17.5273L18.1758 19.3555L17.9648 19.5625L17.5312 19.9961L17.5273 20L17.5312 20.0039L20 22.4727L22.4688 20Z" fill="white"/>
</svg>
