<svg width="40" height="40" viewBox="0 0 40 40" fill="none" xmlns="http://www.w3.org/2000/svg">
<rect width="40" height="40" rx="20" fill="#8247E5"/>
<path d="M23.0862 17.862C22.8668 17.7315 22.5849 17.7315 22.3342 17.862L20.5796 18.9392L19.389 19.6246L17.6658 20.7018C17.4465 20.8323 17.1645 20.8323 16.9138 20.7018L15.5666 19.8531C15.3473 19.7226 15.1906 19.4614 15.1906 19.1677V17.5356C15.1906 17.2745 15.3159 17.0134 15.5666 16.8501L16.9138 16.0341C17.1332 15.9036 17.4151 15.9036 17.6658 16.0341L19.0131 16.8828C19.2324 17.0134 19.389 17.2745 19.389 17.5682V18.6454L20.5796 17.9273V16.8175C20.5796 16.5564 20.4543 16.2953 20.2037 16.132L17.6971 14.5979C17.4778 14.4674 17.1958 14.4674 16.9452 14.5979L14.376 16.1647C14.1253 16.2953 14 16.5564 14 16.8175V19.8858C14 20.1469 14.1253 20.408 14.376 20.5712L16.9138 22.1053C17.1332 22.2359 17.4151 22.2359 17.6658 22.1053L19.389 21.0608L20.5796 20.3427L22.3029 19.2982C22.5222 19.1677 22.8042 19.1677 23.0548 19.2982L24.4021 20.1142C24.6214 20.2448 24.7781 20.5059 24.7781 20.7997V22.4318C24.7781 22.6929 24.6527 22.954 24.4021 23.1172L23.0862 23.9332C22.8668 24.0638 22.5849 24.0638 22.3342 23.9332L20.9869 23.1172C20.7676 22.9866 20.611 22.7255 20.611 22.4318V21.3872L19.4204 22.1053V23.1825C19.4204 23.4436 19.5457 23.7047 19.7963 23.868L22.3342 25.4021C22.5535 25.5326 22.8355 25.5326 23.0862 25.4021L25.624 23.868C25.8433 23.7374 26 23.4763 26 23.1825V20.0816C26 19.8205 25.8747 19.5593 25.624 19.3961L23.0862 17.862Z" fill="white"/>
</svg>
