<svg width="25" height="13" viewBox="0 0 25 13" fill="none" xmlns="http://www.w3.org/2000/svg">
<path d="M23.9857 12.1306C23.8217 11.8945 23.6439 11.6677 23.4532 11.4512V5.32415L23.4161 5.2773C23.508 5.10142 23.5395 4.90161 23.5061 4.70708C23.4728 4.51255 23.3762 4.33348 23.2306 4.19604C23.1227 4.08718 22.987 4.00818 22.8373 3.96718C22.6945 3.92597 22.5438 3.91768 22.3972 3.94297C22.2506 3.96826 22.112 4.02644 21.9926 4.11287C21.8732 4.1993 21.7761 4.31161 21.7093 4.44086C21.6424 4.57012 21.6074 4.71274 21.6073 4.85741C21.6076 5.00708 21.6458 5.15438 21.7186 5.28631L21.6815 5.33316V5.39443C20.6433 4.9179 19.5629 4.53368 18.4534 4.2465L18.3996 4.23389V2.6877L18.3643 2.63904C18.4691 2.44343 18.4999 2.21833 18.4515 2.0029C18.4214 1.8743 18.3634 1.75341 18.2814 1.64829C18.1994 1.54317 18.0953 1.45623 17.976 1.39327C17.8567 1.33031 17.7249 1.29277 17.5895 1.28316C17.4541 1.27355 17.3181 1.29208 17.1906 1.33753C17.0632 1.38297 16.9471 1.45428 16.8503 1.54671C16.7534 1.63914 16.678 1.75055 16.6289 1.87354C16.5799 1.99652 16.5584 2.12825 16.5659 2.25993C16.5733 2.39162 16.6096 2.52025 16.6723 2.63724L16.6352 2.68589V3.86446C15.549 3.68197 14.4513 3.57119 13.3496 3.53288V2.15788L13.3125 2.10923C13.381 1.98184 13.4181 1.84074 13.4209 1.69705C13.4238 1.55335 13.3922 1.41099 13.3287 1.28117C13.2652 1.15135 13.1715 1.03763 13.055 0.948977C12.9386 0.86032 12.8025 0.799145 12.6576 0.770276L12.5537 0.755859H12.4609H12.3682L12.2698 0.766672C12.1249 0.795541 11.9888 0.856715 11.8724 0.945373C11.7559 1.03403 11.6623 1.14775 11.5988 1.27756C11.5353 1.40738 11.5037 1.54975 11.5065 1.69344C11.5093 1.83714 11.5464 1.97824 11.6149 2.10562L11.5778 2.15428V3.52927C10.4742 3.56853 9.37463 3.68052 8.28664 3.86446V2.68589L8.24954 2.63724C8.31222 2.52025 8.34852 2.39162 8.356 2.25993C8.36349 2.12825 8.34199 1.99652 8.29295 1.87354C8.24391 1.75055 8.16844 1.63914 8.07158 1.54671C7.97472 1.45428 7.85869 1.38297 7.73123 1.33753C7.60377 1.29208 7.46779 1.27355 7.33238 1.28316C7.19696 1.29277 7.06521 1.33031 6.9459 1.39327C6.82659 1.45623 6.72247 1.54317 6.64047 1.64829C6.55847 1.75341 6.50048 1.8743 6.47036 2.0029C6.42192 2.21833 6.45278 2.44343 6.55756 2.63904L6.52231 2.6877V4.23389L6.47036 4.2465C5.35818 4.52774 4.2746 4.90653 3.23297 5.37821V5.31694L3.19587 5.27009C3.26865 5.13816 3.30688 4.99086 3.30718 4.84119C3.307 4.69653 3.27208 4.5539 3.20518 4.42465C3.13829 4.29539 3.04127 4.18309 2.92185 4.09665C2.80242 4.01022 2.66388 3.95204 2.51724 3.92675C2.37061 3.90146 2.21992 3.90975 2.07716 3.95096C1.92745 3.99196 1.7917 4.07096 1.68385 4.17982C1.53823 4.31726 1.44168 4.49633 1.40831 4.69086C1.37493 4.88539 1.40647 5.0852 1.49832 5.26108L1.46122 5.30793V11.4512C1.27309 11.6679 1.09779 11.8947 0.936184 12.1306C0.894966 12.1908 0.871292 12.2607 0.867675 12.3328C0.864058 12.405 0.880634 12.4768 0.915642 12.5406C0.95065 12.6043 1.00278 12.6577 1.06651 12.695C1.13023 12.7323 1.20316 12.7521 1.27755 12.7524H4.25521L4.37209 12.6496C6.22733 11.0638 9.24024 10.1267 12.4609 10.1105C15.6816 10.0943 18.7038 11.0674 20.5498 12.6496L20.6667 12.7487H23.635C23.7096 12.7497 23.7831 12.7309 23.8476 12.6945C23.912 12.658 23.9651 12.6053 24.0011 12.5418C24.0371 12.4783 24.0547 12.4066 24.052 12.3341C24.0493 12.2617 24.0263 12.1914 23.9857 12.1306ZM18.3996 5.77647C19.4898 6.06201 20.5468 6.45636 21.5535 6.95324L21.6907 7.02172V7.56234C20.6682 7.01468 19.5886 6.57429 18.4701 6.24862L18.4014 6.2288L18.3996 5.77647ZM18.3996 7.79661C19.4948 8.13515 20.5433 8.60235 21.5219 9.18782L21.6889 9.29054V9.87262C20.6768 9.17331 19.5698 8.61355 18.3996 8.20929V7.79661ZM17.5053 1.6569C17.6107 1.6569 17.7137 1.68728 17.8013 1.74419C17.8889 1.8011 17.9572 1.88199 17.9974 1.9766C18.0377 2.07121 18.0481 2.17529 18.0274 2.27567C18.0067 2.37604 17.9558 2.46819 17.8812 2.54045C17.8065 2.61271 17.7115 2.66183 17.6081 2.68158C17.5047 2.70133 17.3975 2.69083 17.3003 2.65141C17.203 2.61199 17.12 2.54542 17.0617 2.46013C17.0034 2.37484 16.9725 2.27467 16.9729 2.1723C16.9729 2.10446 16.9867 2.0373 17.0134 1.97465C17.0402 1.912 17.0795 1.8551 17.1289 1.80722C17.1784 1.75934 17.2371 1.72141 17.3017 1.69562C17.3663 1.66982 17.4355 1.65667 17.5053 1.6569ZM13.3496 5.02681C14.445 5.06523 15.5362 5.17965 16.6148 5.3692H16.6352V5.80711C15.5516 5.6018 14.453 5.47948 13.3496 5.44129V5.02681ZM13.3496 6.92981C14.4437 6.97263 15.5323 7.10465 16.6037 7.32447H16.6352V7.68488C15.5566 7.43795 14.4566 7.28894 13.3496 7.23977V6.92981ZM12.3682 1.15232C12.4329 1.1379 12.5001 1.1379 12.5648 1.15232C12.6873 1.17368 12.7982 1.23619 12.8781 1.32893C12.9579 1.42166 13.0017 1.53871 13.0017 1.65961C13.0017 1.7805 12.9579 1.89755 12.8781 1.99029C12.7982 2.08302 12.6873 2.14553 12.5648 2.16689C12.4999 2.17892 12.4331 2.17892 12.3682 2.16689C12.2457 2.14553 12.1348 2.08302 12.0549 1.99029C11.9751 1.89755 11.9313 1.7805 11.9313 1.65961C11.9313 1.53871 11.9751 1.42166 12.0549 1.32893C12.1348 1.23619 12.2457 1.17368 12.3682 1.15232ZM8.28664 5.37641H8.30705C9.38567 5.18686 10.4769 5.07244 11.5723 5.03401V5.44129C10.4687 5.48186 9.3701 5.60658 8.28664 5.81432V5.37641ZM8.28664 7.33528H8.31818C9.38959 7.11546 10.4781 6.98345 11.5723 6.94062V7.25959C10.4655 7.3064 9.36552 7.453 8.28664 7.6975V7.33528ZM7.41654 1.6569C7.522 1.65655 7.6252 1.68662 7.71305 1.74332C7.80089 1.80001 7.86943 1.88077 7.90996 1.97534C7.95049 2.06992 7.96119 2.17406 7.9407 2.27456C7.92021 2.37505 7.86947 2.46737 7.79489 2.53981C7.72031 2.61225 7.62527 2.66155 7.52181 2.68145C7.41835 2.70135 7.31114 2.69095 7.21377 2.65158C7.1164 2.61221 7.03326 2.54564 6.9749 2.46032C6.91653 2.37499 6.88557 2.27474 6.88594 2.1723C6.88643 2.03575 6.94248 1.90494 7.04188 1.80838C7.14129 1.71183 7.27596 1.65738 7.41654 1.6569ZM3.23297 7.02172L3.37026 6.95324C4.37696 6.45636 5.43389 6.06201 6.52417 5.77647V6.23601L6.45552 6.25583C5.33701 6.5815 4.25737 7.02189 3.23483 7.56955L3.23297 7.02172ZM3.23297 9.29054L3.39994 9.18782C4.37855 8.60235 5.4271 8.13515 6.52231 7.79661V8.20929C5.35206 8.61355 4.2451 9.17331 3.23297 9.87262V9.29054ZM1.80815 4.83578C1.80851 4.73393 1.83994 4.63446 1.89847 4.54994C1.95699 4.46542 2.03999 4.39964 2.13698 4.36091C2.23396 4.32217 2.34059 4.31222 2.44339 4.33231C2.5462 4.3524 2.64057 4.40163 2.71459 4.47378C2.78861 4.54593 2.83896 4.63777 2.85928 4.7377C2.8796 4.83763 2.86899 4.94116 2.82877 5.03523C2.78856 5.12931 2.72055 5.20969 2.63334 5.26625C2.54612 5.3228 2.44361 5.35298 2.33875 5.35298C2.26891 5.35298 2.19976 5.33959 2.13526 5.31358C2.07077 5.28757 2.01219 5.24944 1.9629 5.20139C1.9136 5.15334 1.87456 5.09631 1.848 5.03357C1.82145 4.97083 1.8079 4.90362 1.80815 4.83578ZM20.9765 11.954C18.9951 10.3195 15.8727 9.3428 12.5537 9.31577H12.3682C9.05471 9.3428 5.93234 10.3195 3.95095 11.954H2.1087C2.19211 11.8134 2.29374 11.6838 2.4111 11.5684L3.09197 10.9971C4.26823 10.0521 5.61603 9.32905 7.06589 8.86525L7.98424 8.59133C9.29445 8.25228 10.6416 8.06596 11.9971 8.03629L12.3979 8.02548H12.5277L12.9247 8.03629C14.2799 8.06786 15.6264 8.256 16.9358 8.59674L17.8634 8.87066C19.3105 9.33306 20.6558 10.0543 21.8299 10.9971L22.5108 11.5684C22.6286 11.6861 22.7303 11.8181 22.8132 11.9612L20.9765 11.954ZM22.5831 5.35298C22.4777 5.35334 22.3746 5.32331 22.2868 5.2667C22.199 5.21008 22.1305 5.12943 22.0899 5.03496C22.0493 4.94049 22.0385 4.83644 22.0588 4.73599C22.0791 4.63555 22.1297 4.54322 22.2041 4.47071C22.2785 4.3982 22.3734 4.34876 22.4767 4.32866C22.58 4.30856 22.6872 4.31869 22.7846 4.35778C22.882 4.39688 22.9653 4.46317 23.0238 4.54826C23.0824 4.63335 23.1137 4.73341 23.1137 4.83578C23.1137 4.97264 23.0579 5.10392 22.9584 5.20086C22.859 5.29781 22.724 5.35251 22.5831 5.35298Z" fill="currentcolor"/>
</svg>
