<svg width="60" height="60" viewBox="0 0 60 60" fill="none" xmlns="http://www.w3.org/2000/svg">
<path d="M20.8843 24.5562C20.8824 24.2064 21.1577 24.2102 21.1577 24.2102C22.3223 24.2102 31.2628 24.2102 32.8236 24.212C33.3315 24.2102 33.6608 24.212 33.6608 24.212C33.6608 24.212 33.6608 22.9991 33.6608 22.2345C33.6608 21.47 34.2337 22.0485 34.2337 22.0485C34.2337 22.0485 38.5235 25.3598 38.9775 25.8119C39.3011 26.1393 38.9384 26.4499 38.9384 26.4499L34.3435 30.3305C34.3435 30.3305 33.7966 30.9072 33.7966 30.2821C33.7984 29.6534 33.7966 28.1391 33.7966 28.1391C33.7966 28.1391 33.4282 28.1391 32.8645 28.1372C31.248 28.1391 22.406 28.1372 21.208 28.1372C21.208 28.1372 20.8843 28.2228 20.8843 27.7317C20.8843 27.235 20.8843 24.9078 20.8843 24.5562Z" fill="#F4CD68"/>
<path d="M39.1137 32.1443C39.1156 31.7909 38.8402 31.7983 38.8402 31.7983C37.6776 31.7983 28.7351 31.7983 27.1725 31.8002C26.6646 31.7983 26.3354 31.8002 26.3354 31.8002C26.3354 31.8002 26.3354 30.5854 26.3354 29.8227C26.3354 29.06 25.7624 29.6348 25.7624 29.6348C25.7624 29.6348 21.4726 32.9461 21.0187 33.3963C20.695 33.7256 21.0577 34.04 21.0577 34.04L25.6526 37.9205C25.6526 37.9205 26.1977 38.4954 26.1977 37.8684C26.1959 37.2397 26.1977 35.7273 26.1977 35.7273C26.1977 35.7273 26.566 35.7273 27.1316 35.7235C28.7482 35.7273 37.5901 35.7235 38.7863 35.7235C38.7863 35.7235 39.1137 35.811 39.1156 35.3161C39.1137 34.8213 39.1137 32.4978 39.1137 32.1443Z" fill="#F4CD68"/>
<rect x="0.5" y="0.5" width="59" height="59" rx="29.5" stroke="#F4CD68"/>
</svg>
