<svg width="162" height="83" viewBox="0 0 162 83" fill="none" xmlns="http://www.w3.org/2000/svg">
<g style="mix-blend-mode:hard-light" filter="url(#filter0_f_2333_125231)">
<rect x="23.4727" y="24" width="114.055" height="35" fill="#42FF00" fill-opacity="0.3"/>
</g>
<g style="mix-blend-mode:hard-light" filter="url(#filter1_f_2333_125231)">
<rect x="26.0169" y="25.6927" width="110.102" height="31.6146" rx="6.30729" stroke="#42FF00" stroke-width="3.38542"/>
</g>
<g style="mix-blend-mode:hard-light" filter="url(#filter2_f_2333_125231)">
<rect x="26.5378" y="26.2135" width="109.06" height="30.5729" rx="5.78646" stroke="#42FF00" stroke-width="4.42708"/>
</g>
<g style="mix-blend-mode:hard-light" filter="url(#filter3_ddi_2333_125231)">
<rect x="26.5677" y="25.6927" width="110.102" height="31.6146" rx="6.30729" stroke="#42FF00" stroke-opacity="0.2" stroke-width="3.38542"/>
</g>
<g filter="url(#filter4_f_2333_125231)">
<rect x="25.3659" y="25.0417" width="111.404" height="32.9167" rx="6.95833" stroke="#42FF00" stroke-width="2.08333"/>
</g>
<g filter="url(#filter5_f_2333_125231)">
<rect x="24.8451" y="24.5208" width="112.445" height="33.9583" rx="7.47917" stroke="white" stroke-width="1.04167"/>
</g>
<path d="M37.0258 47.154C36.2885 47.154 35.6025 47.028 34.9678 46.776C34.3425 46.5147 33.7918 46.1507 33.3158 45.684C32.8491 45.2173 32.4851 44.676 32.2238 44.06C31.9625 43.4347 31.8318 42.7627 31.8318 42.044C31.8318 41.3253 31.9625 40.658 32.2238 40.042C32.4851 39.4167 32.8491 38.8753 33.3158 38.418C33.7825 37.9607 34.3285 37.606 34.9538 37.354C35.5885 37.0927 36.2745 36.962 37.0118 36.962C37.7958 36.962 38.4911 37.088 39.0978 37.34C39.7138 37.592 40.2505 37.9373 40.7078 38.376L39.2378 39.86C38.9765 39.58 38.6591 39.3607 38.2858 39.202C37.9218 39.0433 37.4971 38.964 37.0118 38.964C36.5825 38.964 36.1858 39.0387 35.8218 39.188C35.4671 39.328 35.1591 39.5333 34.8978 39.804C34.6458 40.0747 34.4451 40.4013 34.2958 40.784C34.1558 41.1667 34.0858 41.5867 34.0858 42.044C34.0858 42.5107 34.1558 42.9353 34.2958 43.318C34.4451 43.7007 34.6458 44.0273 34.8978 44.298C35.1591 44.5687 35.4671 44.7787 35.8218 44.928C36.1858 45.0773 36.5825 45.152 37.0118 45.152C37.5158 45.152 37.9545 45.0727 38.3278 44.914C38.7011 44.7553 39.0231 44.536 39.2938 44.256L40.7778 45.74C40.3018 46.1787 39.7558 46.524 39.1398 46.776C38.5331 47.028 37.8285 47.154 37.0258 47.154ZM44.9041 47.154C44.2041 47.154 43.5694 47 43.0001 46.692C42.4401 46.3747 41.9967 45.9453 41.6701 45.404C41.3434 44.8627 41.1801 44.256 41.1801 43.584C41.1801 42.912 41.3434 42.31 41.6701 41.778C41.9967 41.246 42.4401 40.826 43.0001 40.518C43.5601 40.2007 44.1947 40.042 44.9041 40.042C45.6134 40.042 46.2481 40.196 46.8081 40.504C47.3681 40.812 47.8114 41.2367 48.1381 41.778C48.4647 42.31 48.6281 42.912 48.6281 43.584C48.6281 44.256 48.4647 44.8627 48.1381 45.404C47.8114 45.9453 47.3681 46.3747 46.8081 46.692C46.2481 47 45.6134 47.154 44.9041 47.154ZM44.9041 45.208C45.2121 45.208 45.4827 45.1427 45.7161 45.012C45.9494 44.872 46.1267 44.6807 46.2481 44.438C46.3787 44.186 46.4441 43.9013 46.4441 43.584C46.4441 43.2667 46.3787 42.9913 46.2481 42.758C46.1174 42.5153 45.9354 42.3287 45.7021 42.198C45.4781 42.058 45.2121 41.988 44.9041 41.988C44.6054 41.988 44.3394 42.058 44.1061 42.198C43.8727 42.3287 43.6907 42.5153 43.5601 42.758C43.4294 43.0007 43.3641 43.2807 43.3641 43.598C43.3641 43.906 43.4294 44.186 43.5601 44.438C43.6907 44.6807 43.8727 44.872 44.1061 45.012C44.3394 45.1427 44.6054 45.208 44.9041 45.208ZM54.1885 47V43.122C54.1885 42.7673 54.0765 42.4827 53.8525 42.268C53.6378 42.044 53.3625 41.932 53.0265 41.932C52.7931 41.932 52.5878 41.9833 52.4105 42.086C52.2331 42.1793 52.0931 42.3193 51.9905 42.506C51.8878 42.6833 51.8365 42.8887 51.8365 43.122L51.0105 42.716C51.0105 42.184 51.1271 41.7173 51.3605 41.316C51.5938 40.9147 51.9158 40.6067 52.3265 40.392C52.7465 40.168 53.2178 40.056 53.7405 40.056C54.2445 40.056 54.6878 40.1773 55.0705 40.42C55.4625 40.6533 55.7705 40.966 55.9945 41.358C56.2185 41.75 56.3305 42.1793 56.3305 42.646V47H54.1885ZM49.6945 47V40.196H51.8365V47H49.6945ZM62.2002 47V43.122C62.2002 42.7673 62.0882 42.4827 61.8642 42.268C61.6495 42.044 61.3742 41.932 61.0382 41.932C60.8049 41.932 60.5995 41.9833 60.4222 42.086C60.2449 42.1793 60.1049 42.3193 60.0022 42.506C59.8995 42.6833 59.8482 42.8887 59.8482 43.122L59.0222 42.716C59.0222 42.184 59.1389 41.7173 59.3722 41.316C59.6055 40.9147 59.9275 40.6067 60.3382 40.392C60.7582 40.168 61.2295 40.056 61.7522 40.056C62.2562 40.056 62.6995 40.1773 63.0822 40.42C63.4742 40.6533 63.7822 40.966 64.0062 41.358C64.2302 41.75 64.3422 42.1793 64.3422 42.646V47H62.2002ZM57.7062 47V40.196H59.8482V47H57.7062ZM69.0779 47.154C68.3406 47.154 67.6826 47.0047 67.1039 46.706C66.5346 46.398 66.0866 45.9733 65.7599 45.432C65.4332 44.8907 65.2699 44.2793 65.2699 43.598C65.2699 42.9167 65.4286 42.31 65.7459 41.778C66.0726 41.2367 66.5112 40.812 67.0619 40.504C67.6126 40.196 68.2332 40.042 68.9239 40.042C69.5959 40.042 70.1886 40.1867 70.7019 40.476C71.2152 40.7653 71.6166 41.1667 71.9059 41.68C72.2046 42.1933 72.3539 42.7813 72.3539 43.444C72.3539 43.5653 72.3446 43.696 72.3259 43.836C72.3166 43.9667 72.2932 44.1207 72.2559 44.298L66.3899 44.312V42.842L71.3459 42.828L70.4219 43.444C70.4126 43.052 70.3519 42.73 70.2399 42.478C70.1279 42.2167 69.9599 42.0207 69.7359 41.89C69.5212 41.75 69.2552 41.68 68.9379 41.68C68.6019 41.68 68.3079 41.7593 68.0559 41.918C67.8132 42.0673 67.6219 42.282 67.4819 42.562C67.3512 42.842 67.2859 43.1827 67.2859 43.584C67.2859 43.9853 67.3559 44.3307 67.4959 44.62C67.6452 44.9 67.8506 45.1193 68.1119 45.278C68.3826 45.4273 68.6999 45.502 69.0639 45.502C69.3999 45.502 69.7032 45.446 69.9739 45.334C70.2446 45.2127 70.4826 45.0353 70.6879 44.802L71.8639 45.978C71.5279 46.37 71.1219 46.664 70.6459 46.86C70.1699 47.056 69.6472 47.154 69.0779 47.154ZM76.6778 47.154C75.9778 47.154 75.3432 47 74.7738 46.692C74.2045 46.384 73.7565 45.9593 73.4298 45.418C73.1032 44.8767 72.9398 44.27 72.9398 43.598C72.9398 42.9167 73.1032 42.31 73.4298 41.778C73.7658 41.2367 74.2185 40.812 74.7878 40.504C75.3572 40.196 75.9965 40.042 76.7058 40.042C77.2378 40.042 77.7232 40.1353 78.1618 40.322C78.6098 40.4993 79.0065 40.77 79.3518 41.134L77.9798 42.506C77.8212 42.3287 77.6345 42.198 77.4198 42.114C77.2145 42.03 76.9765 41.988 76.7058 41.988C76.3978 41.988 76.1225 42.058 75.8798 42.198C75.6465 42.3287 75.4598 42.5153 75.3198 42.758C75.1892 42.9913 75.1238 43.2667 75.1238 43.584C75.1238 43.9013 75.1892 44.1813 75.3198 44.424C75.4598 44.6667 75.6512 44.858 75.8938 44.998C76.1365 45.138 76.4072 45.208 76.7058 45.208C76.9858 45.208 77.2332 45.1613 77.4478 45.068C77.6718 44.9653 77.8632 44.8253 78.0218 44.648L79.3798 46.02C79.0252 46.3933 78.6238 46.678 78.1758 46.874C77.7278 47.0607 77.2285 47.154 76.6778 47.154ZM81.1898 47V37.382H83.3318V47H81.1898ZM79.6498 42.016V40.196H84.8718V42.016H79.6498ZM91.1416 47L87.9636 37.116H90.1476L92.4716 44.718H91.6176L93.8856 37.116H95.6076L97.8756 44.718H97.0356L99.3456 37.116H101.516L98.3376 47H96.6156L94.3336 39.398H95.1456L92.8636 47H91.1416ZM104.476 47.14C103.851 47.14 103.291 46.986 102.796 46.678C102.311 46.37 101.923 45.95 101.634 45.418C101.354 44.886 101.214 44.2793 101.214 43.598C101.214 42.9167 101.354 42.31 101.634 41.778C101.923 41.246 102.311 40.826 102.796 40.518C103.291 40.21 103.851 40.056 104.476 40.056C104.933 40.056 105.344 40.1447 105.708 40.322C106.081 40.4993 106.385 40.7467 106.618 41.064C106.851 41.372 106.982 41.7267 107.01 42.128V45.068C106.982 45.4693 106.851 45.8287 106.618 46.146C106.394 46.454 106.095 46.6967 105.722 46.874C105.349 47.0513 104.933 47.14 104.476 47.14ZM104.91 45.208C105.367 45.208 105.736 45.0587 106.016 44.76C106.296 44.452 106.436 44.0647 106.436 43.598C106.436 43.2807 106.371 43.0007 106.24 42.758C106.119 42.5153 105.941 42.3287 105.708 42.198C105.484 42.058 105.223 41.988 104.924 41.988C104.625 41.988 104.359 42.058 104.126 42.198C103.902 42.3287 103.72 42.5153 103.58 42.758C103.449 43.0007 103.384 43.2807 103.384 43.598C103.384 43.906 103.449 44.1813 103.58 44.424C103.711 44.6667 103.893 44.858 104.126 44.998C104.359 45.138 104.621 45.208 104.91 45.208ZM106.352 47V45.166L106.674 43.514L106.352 41.862V40.196H108.452V47H106.352ZM109.96 47V36.836H112.102V47H109.96ZM113.61 47V36.836H115.752V47H113.61ZM120.621 47.154C119.884 47.154 119.226 47.0047 118.647 46.706C118.078 46.398 117.63 45.9733 117.303 45.432C116.976 44.8907 116.813 44.2793 116.813 43.598C116.813 42.9167 116.972 42.31 117.289 41.778C117.616 41.2367 118.054 40.812 118.605 40.504C119.156 40.196 119.776 40.042 120.467 40.042C121.139 40.042 121.732 40.1867 122.245 40.476C122.758 40.7653 123.16 41.1667 123.449 41.68C123.748 42.1933 123.897 42.7813 123.897 43.444C123.897 43.5653 123.888 43.696 123.869 43.836C123.86 43.9667 123.836 44.1207 123.799 44.298L117.933 44.312V42.842L122.889 42.828L121.965 43.444C121.956 43.052 121.895 42.73 121.783 42.478C121.671 42.2167 121.503 42.0207 121.279 41.89C121.064 41.75 120.798 41.68 120.481 41.68C120.145 41.68 119.851 41.7593 119.599 41.918C119.356 42.0673 119.165 42.282 119.025 42.562C118.894 42.842 118.829 43.1827 118.829 43.584C118.829 43.9853 118.899 44.3307 119.039 44.62C119.188 44.9 119.394 45.1193 119.655 45.278C119.926 45.4273 120.243 45.502 120.607 45.502C120.943 45.502 121.246 45.446 121.517 45.334C121.788 45.2127 122.026 45.0353 122.231 44.802L123.407 45.978C123.071 46.37 122.665 46.664 122.189 46.86C121.713 47.056 121.19 47.154 120.621 47.154ZM125.746 47V37.382H127.888V47H125.746ZM124.206 42.016V40.196H129.428V42.016H124.206Z" fill="#42FF00"/>
<defs>
<filter id="filter0_f_2333_125231" x="0.0326557" y="0.559999" width="160.935" height="81.88" filterUnits="userSpaceOnUse" color-interpolation-filters="sRGB">
<feFlood flood-opacity="0" result="BackgroundImageFix"/>
<feBlend mode="normal" in="SourceGraphic" in2="BackgroundImageFix" result="shape"/>
<feGaussianBlur stdDeviation="11.72" result="effect1_foregroundBlur_2333_125231"/>
</filter>
<filter id="filter1_f_2333_125231" x="0.886719" y="0.5625" width="160.361" height="81.875" filterUnits="userSpaceOnUse" color-interpolation-filters="sRGB">
<feFlood flood-opacity="0" result="BackgroundImageFix"/>
<feBlend mode="normal" in="SourceGraphic" in2="BackgroundImageFix" result="shape"/>
<feGaussianBlur stdDeviation="11.7188" result="effect1_foregroundBlur_2333_125231"/>
</filter>
<filter id="filter2_f_2333_125231" x="16.5117" y="16.1875" width="129.111" height="50.625" filterUnits="userSpaceOnUse" color-interpolation-filters="sRGB">
<feFlood flood-opacity="0" result="BackgroundImageFix"/>
<feBlend mode="normal" in="SourceGraphic" in2="BackgroundImageFix" result="shape"/>
<feGaussianBlur stdDeviation="3.90625" result="effect1_foregroundBlur_2333_125231"/>
</filter>
<filter id="filter3_ddi_2333_125231" x="14.7188" y="21.6562" width="133.799" height="55.3125" filterUnits="userSpaceOnUse" color-interpolation-filters="sRGB">
<feFlood flood-opacity="0" result="BackgroundImageFix"/>
<feColorMatrix in="SourceAlpha" type="matrix" values="0 0 0 0 0 0 0 0 0 0 0 0 0 0 0 0 0 0 127 0" result="hardAlpha"/>
<feOffset dy="3.38542"/>
<feGaussianBlur stdDeviation="1.30208"/>
<feColorMatrix type="matrix" values="0 0 0 0 0.224 0 0 0 0 0.15 0 0 0 0 0 0 0 0 0.7 0"/>
<feBlend mode="multiply" in2="BackgroundImageFix" result="effect1_dropShadow_2333_125231"/>
<feColorMatrix in="SourceAlpha" type="matrix" values="0 0 0 0 0 0 0 0 0 0 0 0 0 0 0 0 0 0 127 0" result="hardAlpha"/>
<feOffset dy="7.8125"/>
<feGaussianBlur stdDeviation="5.07812"/>
<feColorMatrix type="matrix" values="0 0 0 0 0.56 0 0 0 0 0.44 0 0 0 0 0 0 0 0 1 0"/>
<feBlend mode="color-dodge" in2="effect1_dropShadow_2333_125231" result="effect2_dropShadow_2333_125231"/>
<feBlend mode="normal" in="SourceGraphic" in2="effect2_dropShadow_2333_125231" result="shape"/>
<feColorMatrix in="SourceAlpha" type="matrix" values="0 0 0 0 0 0 0 0 0 0 0 0 0 0 0 0 0 0 127 0" result="hardAlpha"/>
<feOffset dx="-0.338542" dy="0.677083"/>
<feGaussianBlur stdDeviation="0.169271"/>
<feComposite in2="hardAlpha" operator="arithmetic" k2="-1" k3="1"/>
<feColorMatrix type="matrix" values="0 0 0 0 1 0 0 0 0 1 0 0 0 0 1 0 0 0 0.5 0"/>
<feBlend mode="normal" in2="shape" result="effect3_innerShadow_2333_125231"/>
</filter>
<filter id="filter4_f_2333_125231" x="23.8034" y="23.4792" width="114.528" height="36.0417" filterUnits="userSpaceOnUse" color-interpolation-filters="sRGB">
<feFlood flood-opacity="0" result="BackgroundImageFix"/>
<feBlend mode="normal" in="SourceGraphic" in2="BackgroundImageFix" result="shape"/>
<feGaussianBlur stdDeviation="0.260417" result="effect1_foregroundBlur_2333_125231"/>
</filter>
<filter id="filter5_f_2333_125231" x="23.977" y="23.6528" width="114.181" height="35.6944" filterUnits="userSpaceOnUse" color-interpolation-filters="sRGB">
<feFlood flood-opacity="0" result="BackgroundImageFix"/>
<feBlend mode="normal" in="SourceGraphic" in2="BackgroundImageFix" result="shape"/>
<feGaussianBlur stdDeviation="0.173611" result="effect1_foregroundBlur_2333_125231"/>
</filter>
</defs>
</svg>
