<svg width="15" height="15" viewBox="0 0 15 15" fill="none" xmlns="http://www.w3.org/2000/svg">
<path d="M14.6394 7.47964C14.6394 8.40827 14.4547 9.32781 14.0959 10.1858C13.7371 11.0437 13.2111 11.8232 12.5481 12.4799C11.8851 13.1365 11.098 13.6574 10.2317 14.0128C9.36547 14.3682 8.43701 14.5511 7.49938 14.5511C6.56174 14.5511 5.63328 14.3682 4.76702 14.0128C3.90075 13.6574 3.11364 13.1365 2.45063 12.4799C1.78762 11.8232 1.26169 11.0437 0.902875 10.1858C0.544056 9.32781 0.359375 8.40827 0.359375 7.47964C0.359375 6.551 0.544056 5.63146 0.902875 4.77352C1.26169 3.91557 1.78762 3.13602 2.45063 2.47938C3.11364 1.82273 3.90075 1.30186 4.76702 0.946484C5.63328 0.591111 6.56174 0.408203 7.49938 0.408203C8.43701 0.408203 9.36547 0.591111 10.2317 0.946484C11.098 1.30186 11.8851 1.82273 12.5481 2.47938C13.2111 3.13602 13.7371 3.91557 14.0959 4.77352C14.4547 5.63146 14.6394 6.551 14.6394 7.47964Z" fill="currentcolor"/>
<path d="M7.50105 0.730469C5.61888 0.730469 4.09375 2.24095 4.09375 4.10504C4.09375 5.96914 5.61888 7.48047 7.50105 7.48047C5.87104 6.54842 5.3128 4.48421 6.25389 2.86986C6.8845 1.78811 8.02898 1.1829 9.20556 1.18172C8.70429 0.894524 8.12181 0.730469 7.50105 0.730469Z" fill="currentcolor"/>
<path d="M13.3984 4.10402C12.4574 2.48967 10.374 1.93679 8.74399 2.86884C7.11398 3.80088 6.555 5.86466 7.49609 7.47902C7.49609 5.61492 9.02196 4.10401 10.9041 4.10401C12.1653 4.10401 13.2668 4.78304 13.8561 5.79161C13.8566 5.21807 13.7088 4.63644 13.3984 4.10402Z" fill="currentcolor"/>
<path d="M13.4024 10.8537C14.3434 9.23935 13.7852 7.17599 12.1552 6.24395C10.5252 5.3119 8.44109 5.86435 7.5 7.4787C9.13001 6.54665 11.2141 7.09995 12.1552 8.7143C12.7858 9.79606 12.7428 11.0803 12.1555 12.09C12.6573 11.8037 13.092 11.3861 13.4024 10.8537Z" fill="currentcolor"/>
<path d="M7.50139 14.2305C9.38356 14.2305 10.9087 12.72 10.9087 10.8559C10.9087 8.9918 9.38356 7.48047 7.50139 7.48047C9.13139 8.41252 9.68963 10.4767 8.74855 12.0911C8.11794 13.1728 6.97346 13.778 5.79688 13.7792C6.29815 14.0664 6.88063 14.2305 7.50139 14.2305Z" fill="currentcolor"/>
<path d="M1.5983 10.8555C2.53938 12.4698 4.62275 13.0227 6.25275 12.0907C7.88276 11.1586 8.44174 9.09482 7.50066 7.48047C7.50066 9.34456 5.97478 10.8555 4.09261 10.8555C2.8314 10.8555 1.72995 10.1764 1.14063 9.16787C1.14013 9.74142 1.28792 10.323 1.5983 10.8555Z" fill="currentcolor"/>
<path d="M1.59784 4.10549C0.656753 5.71984 1.21499 7.78319 2.845 8.71524C4.475 9.64729 6.55911 9.09484 7.5002 7.48049C5.87019 8.41253 3.78608 7.85923 2.84499 6.24488C2.21438 5.16313 2.25742 3.8789 2.84468 2.86914C2.34291 3.15549 1.90822 3.57306 1.59784 4.10549Z" fill="currentcolor"/>
<path d="M10.9087 1.63446C9.27865 0.702416 7.19528 1.25529 6.2542 2.86964C5.31311 4.484 5.87092 6.54809 7.50092 7.48014C6.55984 5.86578 7.1185 3.80169 8.74851 2.86964C9.84075 2.24509 11.1374 2.28771 12.157 2.86933C11.8679 2.37238 11.4462 1.94186 10.9087 1.63446Z" fill="white"/>
<path d="M14.3155 7.48005C14.3155 5.61595 12.7903 4.10547 10.9082 4.10547C9.02599 4.10547 7.5 5.61595 7.5 7.48005C8.44108 5.86569 10.5253 5.31281 12.1553 6.24486C13.2476 6.86941 13.8586 8.0029 13.8598 9.16819C14.1498 8.67173 14.3155 8.09484 14.3155 7.48005Z" fill="white"/>
<path d="M10.9077 13.3257C12.5377 12.3936 13.096 10.3302 12.1549 8.7159C11.2138 7.10154 9.13001 6.54793 7.5 7.47998C9.38217 7.47998 10.9077 8.9912 10.9077 10.8553C10.9077 12.1044 10.2221 13.1953 9.20377 13.7789C9.78287 13.7794 10.3701 13.633 10.9077 13.3257Z" fill="white"/>
<path d="M4.09209 13.3261C5.72209 14.2582 7.80546 13.7053 8.74654 12.091C9.68762 10.4766 9.12982 8.41252 7.49981 7.48047C8.4409 9.09482 7.88223 11.1589 6.25223 12.091C5.15998 12.7155 3.8633 12.6729 2.84375 12.0913C3.13288 12.5882 3.5545 13.0187 4.09209 13.3261Z" fill="white"/>
<path d="M0.6875 7.47915C0.6875 9.34325 2.21263 10.8537 4.0948 10.8537C5.97697 10.8537 7.50295 9.34325 7.50295 7.47915C6.56187 9.09351 4.47764 9.64638 2.84764 8.71434C1.75539 8.08979 1.14432 6.9563 1.14313 5.79102C0.853147 6.28748 0.6875 6.86436 0.6875 7.47915Z" fill="white"/>
<path d="M4.09499 1.63296C2.46499 2.56501 1.90675 4.62837 2.84784 6.24272C3.78892 7.85707 5.87272 8.41068 7.50272 7.47864C5.62055 7.47864 4.09499 5.96742 4.09499 4.10332C4.09499 2.85422 4.7806 1.76336 5.79896 1.17969C5.21985 1.1792 4.63258 1.32557 4.09499 1.63296Z" fill="white"/>
</svg>
