<svg width="18" height="20" viewBox="0 0 18 20" fill="none" xmlns="http://www.w3.org/2000/svg">
<path d="M8.88895 0C7.05095 0 5.55562 1.49533 5.55562 3.33333V4.44444H1.66673C1.37651 4.44444 1.13495 4.668 1.11273 4.95733L0.00161834 19.4018C-0.0101594 19.556 0.0427295 19.7082 0.147841 19.822C0.253174 19.9353 0.400952 20 0.555618 20H17.2223C17.377 20 17.5247 19.9353 17.6298 19.822C17.735 19.7084 17.7878 19.5562 17.7761 19.4018L16.665 4.95733C16.643 4.668 16.4014 4.44444 16.1112 4.44444H12.2223V3.33333C12.2223 1.49533 10.727 0 8.88895 0ZM6.66673 3.33333C6.66673 2.108 7.66362 1.11111 8.88895 1.11111C10.1143 1.11111 11.1112 2.108 11.1112 3.33333V4.44444H6.66673V3.33333ZM15.5967 5.55556L16.6223 18.8889H1.15562L2.18117 5.55556H5.55562V7.22222C5.55562 7.52911 5.80429 7.77778 6.11117 7.77778C6.41806 7.77778 6.66673 7.52911 6.66673 7.22222V5.55556H11.1112V7.22222C11.1112 7.52911 11.3598 7.77778 11.6667 7.77778C11.9736 7.77778 12.2223 7.52911 12.2223 7.22222V5.55556H15.5967Z" fill="currentcolor"/>
</svg>
