<svg width="248" height="98" viewBox="0 0 248 98" fill="none" xmlns="http://www.w3.org/2000/svg">
<g style="mix-blend-mode:hard-light" filter="url(#filter0_f_11586_121976)">
<rect x="23.5" y="24" width="201" height="50" fill="#FF922D" fill-opacity="0.3"/>
</g>
<g style="mix-blend-mode:hard-light" filter="url(#filter1_f_11586_121976)">
<rect x="26.1927" y="25.6927" width="196.615" height="46.6146" rx="6.30729" stroke="#FFAB2D" stroke-width="3.38542"/>
</g>
<g style="mix-blend-mode:hard-light" filter="url(#filter2_f_11586_121976)">
<rect x="26.7135" y="26.2135" width="195.573" height="45.5729" rx="5.78646" stroke="#FFAB2D" stroke-width="4.42708"/>
</g>
<g style="mix-blend-mode:hard-light" filter="url(#filter3_ddi_11586_121976)">
<rect x="26.1927" y="25.6927" width="196.615" height="46.6146" rx="6.30729" stroke="#FFC940" stroke-opacity="0.2" stroke-width="3.38542"/>
</g>
<g filter="url(#filter4_f_11586_121976)">
<rect x="25.5417" y="25.0417" width="197.917" height="47.9167" rx="6.95833" stroke="#FFD56A" stroke-width="2.08333"/>
</g>
<g filter="url(#filter5_f_11586_121976)">
<rect x="25.0208" y="24.5208" width="198.958" height="48.9583" rx="7.47917" stroke="white" stroke-width="1.04167"/>
</g>
<path d="M94.51 60.36C98.92 60.36 101.47 57.21 101.47 53.58C101.47 51.15 100.51 49.65 99.76 48.45C99.28 47.67 98.89 47.04 98.89 46.38C98.89 45.18 99.7 44.43 100.75 44.43C100.81 44.43 100.84 44.43 100.99 44.46V39.42C100.45 39.21 99.64 39.12 98.98 39.12C94.54 39.12 92.32 41.88 92.32 45.75C92.32 47.61 93.07 48.99 93.73 50.19C94.27 51.12 94.72 51.99 94.72 52.89C94.72 54.12 93.76 55.08 92.5 55.08C92.32 55.08 92.08 55.05 91.9 54.96V60.06C92.59 60.24 93.43 60.36 94.51 60.36ZM111.951 54.21L115.191 60.63L122.541 45.24H116.631L114.861 49.44L113.121 45.24H110.781L109.011 49.44L107.271 45.24H101.331L108.711 60.63L111.951 54.21ZM128.586 60.42C130.116 60.42 131.166 59.94 131.946 59.19V60H137.406V45.24H131.946V46.08C131.166 45.3 130.116 44.82 128.586 44.82C124.956 44.82 121.776 48.33 121.776 52.62C121.776 56.94 124.956 60.42 128.586 60.42ZM130.116 54.99C128.826 54.99 127.776 53.94 127.776 52.62C127.776 51.33 128.826 50.28 130.116 50.28C130.866 50.28 131.496 50.58 131.946 51.12V54.12C131.496 54.66 130.866 54.99 130.116 54.99ZM144.971 65.55V59.19C145.721 59.94 146.801 60.42 148.331 60.42C151.961 60.42 155.141 56.94 155.141 52.62C155.141 48.33 151.961 44.82 148.331 44.82C146.801 44.82 145.721 45.3 144.971 46.08V45.24H139.511V65.55H144.971ZM146.801 54.99C146.051 54.99 145.421 54.66 144.971 54.12V51.12C145.421 50.58 146.051 50.28 146.801 50.28C148.091 50.28 149.141 51.33 149.141 52.62C149.141 53.94 148.091 54.99 146.801 54.99Z" fill="#FF6B00"/>
<defs>
<filter id="filter0_f_11586_121976" x="0.0599995" y="0.559999" width="247.88" height="96.88" filterUnits="userSpaceOnUse" color-interpolation-filters="sRGB">
<feFlood flood-opacity="0" result="BackgroundImageFix"/>
<feBlend mode="normal" in="SourceGraphic" in2="BackgroundImageFix" result="shape"/>
<feGaussianBlur stdDeviation="11.72" result="effect1_foregroundBlur_11586_121976"/>
</filter>
<filter id="filter1_f_11586_121976" x="1.0625" y="0.5625" width="246.875" height="96.875" filterUnits="userSpaceOnUse" color-interpolation-filters="sRGB">
<feFlood flood-opacity="0" result="BackgroundImageFix"/>
<feBlend mode="normal" in="SourceGraphic" in2="BackgroundImageFix" result="shape"/>
<feGaussianBlur stdDeviation="11.7188" result="effect1_foregroundBlur_11586_121976"/>
</filter>
<filter id="filter2_f_11586_121976" x="16.6875" y="16.1875" width="215.625" height="65.625" filterUnits="userSpaceOnUse" color-interpolation-filters="sRGB">
<feFlood flood-opacity="0" result="BackgroundImageFix"/>
<feBlend mode="normal" in="SourceGraphic" in2="BackgroundImageFix" result="shape"/>
<feGaussianBlur stdDeviation="3.90625" result="effect1_foregroundBlur_11586_121976"/>
</filter>
<filter id="filter3_ddi_11586_121976" x="14.3438" y="21.6562" width="220.312" height="70.3125" filterUnits="userSpaceOnUse" color-interpolation-filters="sRGB">
<feFlood flood-opacity="0" result="BackgroundImageFix"/>
<feColorMatrix in="SourceAlpha" type="matrix" values="0 0 0 0 0 0 0 0 0 0 0 0 0 0 0 0 0 0 127 0" result="hardAlpha"/>
<feOffset dy="3.38542"/>
<feGaussianBlur stdDeviation="1.30208"/>
<feColorMatrix type="matrix" values="0 0 0 0 0.224 0 0 0 0 0.15 0 0 0 0 0 0 0 0 0.7 0"/>
<feBlend mode="multiply" in2="BackgroundImageFix" result="effect1_dropShadow_11586_121976"/>
<feColorMatrix in="SourceAlpha" type="matrix" values="0 0 0 0 0 0 0 0 0 0 0 0 0 0 0 0 0 0 127 0" result="hardAlpha"/>
<feOffset dy="7.8125"/>
<feGaussianBlur stdDeviation="5.07812"/>
<feColorMatrix type="matrix" values="0 0 0 0 0.56 0 0 0 0 0.44 0 0 0 0 0 0 0 0 1 0"/>
<feBlend mode="color-dodge" in2="effect1_dropShadow_11586_121976" result="effect2_dropShadow_11586_121976"/>
<feBlend mode="normal" in="SourceGraphic" in2="effect2_dropShadow_11586_121976" result="shape"/>
<feColorMatrix in="SourceAlpha" type="matrix" values="0 0 0 0 0 0 0 0 0 0 0 0 0 0 0 0 0 0 127 0" result="hardAlpha"/>
<feOffset dx="-0.338542" dy="0.677083"/>
<feGaussianBlur stdDeviation="0.169271"/>
<feComposite in2="hardAlpha" operator="arithmetic" k2="-1" k3="1"/>
<feColorMatrix type="matrix" values="0 0 0 0 1 0 0 0 0 1 0 0 0 0 1 0 0 0 0.5 0"/>
<feBlend mode="normal" in2="shape" result="effect3_innerShadow_11586_121976"/>
</filter>
<filter id="filter4_f_11586_121976" x="23.9792" y="23.4792" width="201.042" height="51.0417" filterUnits="userSpaceOnUse" color-interpolation-filters="sRGB">
<feFlood flood-opacity="0" result="BackgroundImageFix"/>
<feBlend mode="normal" in="SourceGraphic" in2="BackgroundImageFix" result="shape"/>
<feGaussianBlur stdDeviation="0.260417" result="effect1_foregroundBlur_11586_121976"/>
</filter>
<filter id="filter5_f_11586_121976" x="24.1528" y="23.6528" width="200.694" height="50.6944" filterUnits="userSpaceOnUse" color-interpolation-filters="sRGB">
<feFlood flood-opacity="0" result="BackgroundImageFix"/>
<feBlend mode="normal" in="SourceGraphic" in2="BackgroundImageFix" result="shape"/>
<feGaussianBlur stdDeviation="0.173611" result="effect1_foregroundBlur_11586_121976"/>
</filter>
</defs>
</svg>
