<?xml version="1.0" standalone="no"?>
<!DOCTYPE svg PUBLIC "-//W3C//DTD SVG 20010904//EN"
 "http://www.w3.org/TR/2001/REC-SVG-20010904/DTD/svg10.dtd">
<svg version="1.0" xmlns="http://www.w3.org/2000/svg"
 width="248.000000pt" height="98.000000pt" viewBox="0 0 248.000000 98.000000"
 preserveAspectRatio="xMidYMid meet">

<g transform="translate(0.000000,98.000000) scale(0.100000,-0.100000)"
fill="#000000" stroke="none">
<path d="M298 689 c-10 -5 -18 -15 -18 -21 0 -9 3 -9 12 0 17 17 1889 17 1906
0 9 -9 12 -9 12 0 0 6 -9 16 -19 22 -27 14 -1869 13 -1893 -1z"/>
<path d="M275 241 l21 -21 949 0 c946 0 949 0 970 20 l20 21 -30 -15 c-26 -14
-140 -16 -958 -16 -832 0 -931 2 -960 16 l-32 16 20 -21z"/>
</g>
</svg>
