<svg width="19" height="16" viewBox="0 0 19 16" fill="none" xmlns="http://www.w3.org/2000/svg">
<path d="M3.45489 13.1969L3.45487 13.1969L1.66367 11.457L3.44124 9.73737L3.44132 9.73729C4.03186 9.16572 4.57256 8.64579 4.96758 8.2679C5.08929 8.15146 5.19703 8.04865 5.28803 7.96206C5.37722 8.04586 5.479 8.14309 5.58646 8.24747L5.84532 8.49892L5.15348 9.17106L5.15345 9.17109L4.09225 10.2019L3.20828 11.0605H4.44063H9.80265H14.6602V11.4439V11.8274H9.81114C8.34015 11.8274 7.00196 11.8305 6.03116 11.8357C5.54595 11.8384 5.15154 11.8415 4.87791 11.8451C4.74148 11.8469 4.63304 11.8488 4.55778 11.8508C4.52092 11.8518 4.48792 11.853 4.46232 11.8544C4.45103 11.855 4.4328 11.8561 4.41386 11.8582L4.41372 11.8583C4.40684 11.859 4.38333 11.8616 4.35501 11.868L4.35481 11.868C4.34425 11.8704 4.305 11.8791 4.2586 11.8999C4.23712 11.9095 4.18413 11.9345 4.12897 11.9839C4.07611 12.0312 3.96221 12.1559 3.96221 12.3567C3.96221 12.4568 3.99272 12.5305 4.00114 12.5507C4.01379 12.581 4.02685 12.6039 4.03401 12.6159C4.04866 12.6405 4.06261 12.6592 4.06906 12.6677C4.08344 12.6867 4.09797 12.7036 4.10751 12.7145C4.12833 12.7382 4.15449 12.7663 4.18225 12.7954C4.23906 12.855 4.31862 12.9359 4.41367 13.0312C4.60455 13.2225 4.86641 13.48 5.15325 13.7587L5.1533 13.7588L5.82354 14.4098L5.55179 14.6738L5.26345 14.9538L3.45489 13.1969Z" stroke="currentcolor"/>
<path d="M13.3853 7.23599L14.0772 6.56382L14.0773 6.5638L15.1383 5.53297L16.0221 4.67435H14.7899H9.42808H4.57031V4.29094V3.90752H9.41924C10.8902 3.90752 12.2285 3.90439 13.1995 3.8986C13.6847 3.89571 14.0795 3.89215 14.3536 3.88797C14.4901 3.88588 14.5993 3.88361 14.6755 3.88109C14.7126 3.87986 14.747 3.87842 14.7744 3.87655C14.7863 3.87574 14.8073 3.87419 14.8298 3.87108L14.8299 3.87105C14.8381 3.86992 14.8666 3.86598 14.9007 3.85645C14.9141 3.85273 14.9596 3.83992 15.0119 3.81064C15.0378 3.79616 15.0902 3.76414 15.1412 3.70688C15.195 3.64657 15.2682 3.53305 15.2682 3.37385C15.2682 3.26041 15.2284 3.17703 15.2207 3.16086L15.2201 3.15948C15.2066 3.13082 15.1931 3.10943 15.1865 3.09924C15.1726 3.07776 15.1597 3.06127 15.154 3.05414C15.141 3.0378 15.1277 3.02283 15.1187 3.01278C15.099 2.99089 15.0738 2.96423 15.0463 2.93566C14.9902 2.87737 14.9112 2.79741 14.8162 2.70253C14.6256 2.51212 14.364 2.25483 14.0771 1.97613L13.4068 1.32509L13.6743 1.06525L13.326 0.7066L13.6743 1.06525L13.9669 0.78105L15.7711 2.53364L15.7711 2.53369L17.5589 4.26999L15.7755 6.00216L15.7755 6.0022C15.1825 6.57826 14.6418 7.10144 14.2479 7.48037C14.1321 7.59173 14.0293 7.6904 13.9417 7.77418C13.8527 7.68924 13.7513 7.59157 13.6441 7.48741L13.3853 7.23599Z" stroke="currentcolor"/>
</svg>
