<svg width="127" height="75" viewBox="0 0 127 75" fill="none" xmlns="http://www.w3.org/2000/svg">
<g style="mix-blend-mode:hard-light" filter="url(#filter0_f_3148_149874)">
<rect x="24.0625" y="24" width="72.1394" height="27" fill="#42FF00" fill-opacity="0.3"/>
</g>
<g style="mix-blend-mode:hard-light" filter="url(#filter1_f_3148_149874)">
<rect x="26.3568" y="25.6927" width="74.8911" height="23.6146" rx="6.30729" stroke="#42FF00" stroke-width="3.38542"/>
</g>
<g style="mix-blend-mode:hard-light" filter="url(#filter2_f_3148_149874)">
<rect x="26.8776" y="26.2135" width="73.8494" height="22.5729" rx="5.78646" stroke="#42FF00" stroke-width="4.42708"/>
</g>
<g style="mix-blend-mode:hard-light" filter="url(#filter3_ddi_3148_149874)">
<rect x="25.9661" y="25.6927" width="74.8911" height="23.6146" rx="6.30729" stroke="#42FF00" stroke-opacity="0.2" stroke-width="3.38542"/>
</g>
<g filter="url(#filter4_f_3148_149874)">
<rect x="25.7057" y="25.0417" width="76.1932" height="24.9167" rx="6.95833" stroke="#42FF00" stroke-width="2.08333"/>
</g>
<g filter="url(#filter5_f_3148_149874)">
<rect x="25.1849" y="24.5208" width="77.2348" height="25.9583" rx="7.47917" stroke="white" stroke-width="1.04167"/>
</g>
<path d="M38.7531 39.402V37.694H40.8811C41.1518 37.694 41.3991 37.638 41.6231 37.526C41.8471 37.414 42.0244 37.2507 42.1551 37.036C42.2858 36.8213 42.3511 36.56 42.3511 36.252C42.3511 35.9533 42.2858 35.6967 42.1551 35.482C42.0244 35.2673 41.8471 35.104 41.6231 34.992C41.3991 34.88 41.1518 34.824 40.8811 34.824H38.7531V33.116H41.2031C41.8284 33.116 42.3931 33.242 42.8971 33.494C43.4011 33.746 43.7978 34.11 44.0871 34.586C44.3858 35.0527 44.5351 35.608 44.5351 36.252C44.5351 36.896 44.3858 37.456 44.0871 37.932C43.7978 38.3987 43.4011 38.7627 42.8971 39.024C42.3931 39.276 41.8284 39.402 41.2031 39.402H38.7531ZM37.0731 43V33.116H39.2711V43H37.0731ZM45.6681 43V36.196H47.8101V43H45.6681ZM46.7461 35.258C46.4101 35.258 46.1301 35.146 45.9061 34.922C45.6914 34.6887 45.5841 34.4087 45.5841 34.082C45.5841 33.746 45.6914 33.466 45.9061 33.242C46.1301 33.018 46.4101 32.906 46.7461 32.906C47.0821 32.906 47.3574 33.018 47.5721 33.242C47.7868 33.466 47.8941 33.746 47.8941 34.082C47.8941 34.4087 47.7868 34.6887 47.5721 34.922C47.3574 35.146 47.0821 35.258 46.7461 35.258ZM53.8125 43V39.122C53.8125 38.7673 53.7005 38.4827 53.4765 38.268C53.2618 38.044 52.9865 37.932 52.6505 37.932C52.4172 37.932 52.2118 37.9833 52.0345 38.086C51.8572 38.1793 51.7172 38.3193 51.6145 38.506C51.5118 38.6833 51.4605 38.8887 51.4605 39.122L50.6345 38.716C50.6345 38.184 50.7512 37.7173 50.9845 37.316C51.2178 36.9147 51.5398 36.6067 51.9505 36.392C52.3705 36.168 52.8418 36.056 53.3645 36.056C53.8685 36.056 54.3118 36.1773 54.6945 36.42C55.0865 36.6533 55.3945 36.966 55.6185 37.358C55.8425 37.75 55.9545 38.1793 55.9545 38.646V43H53.8125ZM49.3185 43V36.196H51.4605V43H49.3185ZM61.6842 43L59.3042 39.472L61.6702 36.196H64.0642L61.2082 39.878L61.2782 38.996L64.2042 43H61.6842ZM57.3302 43V32.836H59.4722V43H57.3302ZM67.0543 43.168C66.653 43.168 66.2563 43.1167 65.8643 43.014C65.4816 42.9113 65.1223 42.7667 64.7863 42.58C64.4596 42.384 64.1796 42.16 63.9463 41.908L65.1643 40.676C65.3883 40.9187 65.6543 41.11 65.9623 41.25C66.2703 41.3807 66.6063 41.446 66.9703 41.446C67.2223 41.446 67.4136 41.4087 67.5443 41.334C67.6843 41.2593 67.7543 41.1567 67.7543 41.026C67.7543 40.858 67.6703 40.732 67.5023 40.648C67.3436 40.5547 67.1383 40.4753 66.8863 40.41C66.6343 40.3353 66.3683 40.256 66.0883 40.172C65.8083 40.088 65.5423 39.9713 65.2903 39.822C65.0383 39.6727 64.833 39.4673 64.6743 39.206C64.5156 38.9353 64.4363 38.5947 64.4363 38.184C64.4363 37.7453 64.5483 37.3673 64.7723 37.05C64.9963 36.7233 65.3136 36.4667 65.7243 36.28C66.135 36.0933 66.6156 36 67.1663 36C67.745 36 68.277 36.1027 68.7623 36.308C69.257 36.504 69.6583 36.798 69.9663 37.19L68.7483 38.422C68.5336 38.17 68.291 37.9927 68.0203 37.89C67.759 37.7873 67.5023 37.736 67.2503 37.736C67.0076 37.736 66.8256 37.7733 66.7043 37.848C66.583 37.9133 66.5223 38.0113 66.5223 38.142C66.5223 38.282 66.6016 38.394 66.7603 38.478C66.919 38.562 67.1243 38.6367 67.3763 38.702C67.6283 38.7673 67.8943 38.8467 68.1743 38.94C68.4543 39.0333 68.7203 39.1593 68.9723 39.318C69.2243 39.4767 69.4296 39.6913 69.5883 39.962C69.747 40.2233 69.8263 40.5687 69.8263 40.998C69.8263 41.6607 69.5743 42.188 69.0703 42.58C68.5756 42.972 67.9036 43.168 67.0543 43.168ZM73.8304 43.14C73.2051 43.14 72.6451 42.986 72.1504 42.678C71.6651 42.37 71.2778 41.95 70.9884 41.418C70.7084 40.886 70.5684 40.2793 70.5684 39.598C70.5684 38.9167 70.7084 38.31 70.9884 37.778C71.2778 37.246 71.6651 36.826 72.1504 36.518C72.6451 36.21 73.2051 36.056 73.8304 36.056C74.2878 36.056 74.6984 36.1447 75.0624 36.322C75.4358 36.4993 75.7391 36.7467 75.9724 37.064C76.2058 37.372 76.3364 37.7267 76.3644 38.128V41.068C76.3364 41.4693 76.2058 41.8287 75.9724 42.146C75.7484 42.454 75.4498 42.6967 75.0764 42.874C74.7031 43.0513 74.2878 43.14 73.8304 43.14ZM74.2644 41.208C74.7218 41.208 75.0904 41.0587 75.3704 40.76C75.6504 40.452 75.7904 40.0647 75.7904 39.598C75.7904 39.2807 75.7251 39.0007 75.5944 38.758C75.4731 38.5153 75.2958 38.3287 75.0624 38.198C74.8384 38.058 74.5771 37.988 74.2784 37.988C73.9798 37.988 73.7138 38.058 73.4804 38.198C73.2564 38.3287 73.0744 38.5153 72.9344 38.758C72.8038 39.0007 72.7384 39.2807 72.7384 39.598C72.7384 39.906 72.8038 40.1813 72.9344 40.424C73.0651 40.6667 73.2471 40.858 73.4804 40.998C73.7138 41.138 73.9751 41.208 74.2644 41.208ZM75.7064 43V41.166L76.0284 39.514L75.7064 37.862V36.196H77.8064V43H75.7064ZM79.3146 43V32.836H81.4566V43H79.3146ZM86.325 43.154C85.5877 43.154 84.9297 43.0047 84.351 42.706C83.7817 42.398 83.3337 41.9733 83.007 41.432C82.6803 40.8907 82.517 40.2793 82.517 39.598C82.517 38.9167 82.6757 38.31 82.993 37.778C83.3197 37.2367 83.7583 36.812 84.309 36.504C84.8597 36.196 85.4803 36.042 86.171 36.042C86.843 36.042 87.4357 36.1867 87.949 36.476C88.4623 36.7653 88.8637 37.1667 89.153 37.68C89.4517 38.1933 89.601 38.7813 89.601 39.444C89.601 39.5653 89.5917 39.696 89.573 39.836C89.5637 39.9667 89.5403 40.1207 89.503 40.298L83.637 40.312V38.842L88.593 38.828L87.669 39.444C87.6597 39.052 87.599 38.73 87.487 38.478C87.375 38.2167 87.207 38.0207 86.983 37.89C86.7683 37.75 86.5023 37.68 86.185 37.68C85.849 37.68 85.555 37.7593 85.303 37.918C85.0603 38.0673 84.869 38.282 84.729 38.562C84.5983 38.842 84.533 39.1827 84.533 39.584C84.533 39.9853 84.603 40.3307 84.743 40.62C84.8923 40.9 85.0977 41.1193 85.359 41.278C85.6297 41.4273 85.947 41.502 86.311 41.502C86.647 41.502 86.9503 41.446 87.221 41.334C87.4917 41.2127 87.7297 41.0353 87.935 40.802L89.111 41.978C88.775 42.37 88.369 42.664 87.893 42.86C87.417 43.056 86.8943 43.154 86.325 43.154Z" fill="#42FF00"/>
<defs>
<filter id="filter0_f_3148_149874" x="0.622499" y="0.559999" width="119.021" height="73.88" filterUnits="userSpaceOnUse" color-interpolation-filters="sRGB">
<feFlood flood-opacity="0" result="BackgroundImageFix"/>
<feBlend mode="normal" in="SourceGraphic" in2="BackgroundImageFix" result="shape"/>
<feGaussianBlur stdDeviation="11.72" result="effect1_foregroundBlur_3148_149874"/>
</filter>
<filter id="filter1_f_3148_149874" x="1.22656" y="0.5625" width="125.152" height="73.875" filterUnits="userSpaceOnUse" color-interpolation-filters="sRGB">
<feFlood flood-opacity="0" result="BackgroundImageFix"/>
<feBlend mode="normal" in="SourceGraphic" in2="BackgroundImageFix" result="shape"/>
<feGaussianBlur stdDeviation="11.7188" result="effect1_foregroundBlur_3148_149874"/>
</filter>
<filter id="filter2_f_3148_149874" x="16.8516" y="16.1875" width="93.9023" height="42.625" filterUnits="userSpaceOnUse" color-interpolation-filters="sRGB">
<feFlood flood-opacity="0" result="BackgroundImageFix"/>
<feBlend mode="normal" in="SourceGraphic" in2="BackgroundImageFix" result="shape"/>
<feGaussianBlur stdDeviation="3.90625" result="effect1_foregroundBlur_3148_149874"/>
</filter>
<filter id="filter3_ddi_3148_149874" x="14.1172" y="21.6562" width="98.5898" height="47.3125" filterUnits="userSpaceOnUse" color-interpolation-filters="sRGB">
<feFlood flood-opacity="0" result="BackgroundImageFix"/>
<feColorMatrix in="SourceAlpha" type="matrix" values="0 0 0 0 0 0 0 0 0 0 0 0 0 0 0 0 0 0 127 0" result="hardAlpha"/>
<feOffset dy="3.38542"/>
<feGaussianBlur stdDeviation="1.30208"/>
<feColorMatrix type="matrix" values="0 0 0 0 0.224 0 0 0 0 0.15 0 0 0 0 0 0 0 0 0.7 0"/>
<feBlend mode="multiply" in2="BackgroundImageFix" result="effect1_dropShadow_3148_149874"/>
<feColorMatrix in="SourceAlpha" type="matrix" values="0 0 0 0 0 0 0 0 0 0 0 0 0 0 0 0 0 0 127 0" result="hardAlpha"/>
<feOffset dy="7.8125"/>
<feGaussianBlur stdDeviation="5.07812"/>
<feColorMatrix type="matrix" values="0 0 0 0 0.56 0 0 0 0 0.44 0 0 0 0 0 0 0 0 1 0"/>
<feBlend mode="color-dodge" in2="effect1_dropShadow_3148_149874" result="effect2_dropShadow_3148_149874"/>
<feBlend mode="normal" in="SourceGraphic" in2="effect2_dropShadow_3148_149874" result="shape"/>
<feColorMatrix in="SourceAlpha" type="matrix" values="0 0 0 0 0 0 0 0 0 0 0 0 0 0 0 0 0 0 127 0" result="hardAlpha"/>
<feOffset dx="-0.338542" dy="0.677083"/>
<feGaussianBlur stdDeviation="0.169271"/>
<feComposite in2="hardAlpha" operator="arithmetic" k2="-1" k3="1"/>
<feColorMatrix type="matrix" values="0 0 0 0 1 0 0 0 0 1 0 0 0 0 1 0 0 0 0.5 0"/>
<feBlend mode="normal" in2="shape" result="effect3_innerShadow_3148_149874"/>
</filter>
<filter id="filter4_f_3148_149874" x="24.1432" y="23.4792" width="79.319" height="28.0417" filterUnits="userSpaceOnUse" color-interpolation-filters="sRGB">
<feFlood flood-opacity="0" result="BackgroundImageFix"/>
<feBlend mode="normal" in="SourceGraphic" in2="BackgroundImageFix" result="shape"/>
<feGaussianBlur stdDeviation="0.260417" result="effect1_foregroundBlur_3148_149874"/>
</filter>
<filter id="filter5_f_3148_149874" x="24.3168" y="23.6528" width="78.9718" height="27.6944" filterUnits="userSpaceOnUse" color-interpolation-filters="sRGB">
<feFlood flood-opacity="0" result="BackgroundImageFix"/>
<feBlend mode="normal" in="SourceGraphic" in2="BackgroundImageFix" result="shape"/>
<feGaussianBlur stdDeviation="0.173611" result="effect1_foregroundBlur_3148_149874"/>
</filter>
</defs>
</svg>
