<svg width="19" height="19" viewBox="0 0 19 19" fill="none" xmlns="http://www.w3.org/2000/svg">
<g clip-path="url(#clip0_12208_141512)">
<path d="M3.94827 9.04547C3.94829 8.93939 3.96925 8.83435 4.00996 8.73639C4.05067 8.63843 4.11032 8.54948 4.18549 8.47465C4.26066 8.39982 4.34986 8.34058 4.44798 8.30033C4.5461 8.26008 4.6512 8.23961 4.75724 8.24011L6.09844 8.24449C6.31229 8.24449 6.51738 8.32947 6.66859 8.48074C6.8198 8.63201 6.90476 8.83718 6.90476 9.05111V14.1247C7.05581 14.08 7.24913 14.0322 7.46187 13.9821C7.60925 13.9474 7.7406 13.8639 7.83462 13.7452C7.92864 13.6265 7.97981 13.4795 7.97985 13.328V7.03496C7.97985 6.82102 8.06479 6.61584 8.216 6.46454C8.36721 6.31325 8.5723 6.22823 8.78616 6.22819H10.1314C10.3453 6.22823 10.5504 6.31325 10.7016 6.46454C10.8528 6.61584 10.9377 6.82102 10.9377 7.03496V12.8759C10.9377 12.8759 11.2743 12.7397 11.6019 12.6012C11.7237 12.5497 11.8276 12.4635 11.9006 12.3533C11.9737 12.2431 12.0127 12.1138 12.0128 11.9816V5.01835C12.0128 4.80445 12.0978 4.5993 12.2489 4.44804C12.4001 4.29677 12.6052 4.21177 12.819 4.21173H14.1629C14.3766 4.21194 14.5815 4.29701 14.7325 4.44826C14.8835 4.59951 14.9684 4.80455 14.9684 5.01835V10.7523C16.1335 9.90768 17.3142 8.89169 18.2512 7.6701C18.3872 7.49278 18.4772 7.28456 18.5131 7.064C18.549 6.84344 18.5299 6.61742 18.4573 6.40608C18.0235 5.15773 17.334 4.01372 16.4329 3.04723C15.5319 2.08074 14.439 1.31308 13.2243 0.793349C12.0097 0.273623 10.6999 0.013283 9.37889 0.0289911C8.05786 0.0446991 6.75467 0.336108 5.55268 0.88457C4.3507 1.43303 3.2764 2.22647 2.39854 3.21411C1.52068 4.20175 0.85858 5.36184 0.454616 6.62015C0.0506516 7.87846 -0.0862824 9.20727 0.0525757 10.5216C0.191434 11.8358 0.603026 13.1067 1.26102 14.2527C1.37565 14.4504 1.54431 14.6112 1.74717 14.7164C1.95003 14.8215 2.17867 14.8665 2.40623 14.8462C2.66044 14.8238 2.97696 14.7921 3.35327 14.748C3.51705 14.7293 3.66826 14.6511 3.77809 14.5281C3.88793 14.4052 3.94872 14.2461 3.94889 14.0812V9.04547" fill="white"/>
<path d="M3.91943 17.1824C5.33596 18.2133 7.00995 18.8321 8.7562 18.9703C10.5025 19.1085 12.2529 18.7608 13.8138 17.9656C15.3748 17.1704 16.6854 15.9587 17.6007 14.4646C18.516 12.9704 19.0003 11.2521 18.9999 9.49979C18.9999 9.28056 18.9898 9.06477 18.9752 8.84961C15.5059 14.0258 9.10014 16.4457 3.91943 17.1824Z" fill="#F0B90B"/>
</g>
<defs>
<clipPath id="clip0_12208_141512">
<rect width="19" height="19" fill="white"/>
</clipPath>
</defs>
</svg>
