<svg width="30" height="29" viewBox="0 0 30 29" fill="none" xmlns="http://www.w3.org/2000/svg">
<path d="M9.867 16.646L26.6 15.805V6.58301H7.75L9.867 16.646Z" fill="#7D7D7D"/>
<path d="M27.3258 15.8051V6.58313C27.3258 6.17713 27.0068 5.85812 26.6008 5.85812H8.33078L8.01178 4.40812C7.98278 4.20512 7.86678 4.06013 7.69278 3.94413C7.51878 3.82813 7.34478 3.79912 7.14178 3.85712L3.25578 4.69813C3.05278 4.72713 2.90778 4.84312 2.79178 5.01712C2.67578 5.19112 2.64678 5.36513 2.70478 5.56813C2.76278 5.77113 2.84978 5.91612 3.02378 6.03212C3.19778 6.14812 3.37178 6.17712 3.57478 6.11912L6.79378 5.42313L7.05478 6.61212C7.05478 6.69912 7.08378 6.78613 7.11278 6.84413L9.49078 18.1831L8.67878 19.6911C8.56278 19.9231 8.56278 20.1841 8.70778 20.4161C8.82378 20.6191 9.08478 20.7641 9.31678 20.7641H24.9478C25.3538 20.7641 25.6728 20.4451 25.6728 20.0391C25.6728 19.6331 25.3538 19.3141 24.9478 19.3141H10.5058L10.8538 18.6471C10.9408 18.5021 10.9698 18.3281 10.9118 18.1541L10.7378 17.3421L26.6298 16.5301C27.0358 16.5011 27.3258 16.1821 27.3258 15.8051ZM25.8758 15.1091H25.7308L10.4478 15.8921L8.64978 7.30813H25.8758V15.1091Z" fill="white"/>
<path d="M10.1288 24.5917C11.1859 24.5917 12.0428 23.7347 12.0428 22.6777C12.0428 21.6206 11.1859 20.7637 10.1288 20.7637C9.07177 20.7637 8.21484 21.6206 8.21484 22.6777C8.21484 23.7347 9.07177 24.5917 10.1288 24.5917Z" fill="#5A5A5A"/>
<path d="M10.1307 25.1716C8.76772 25.1716 7.63672 24.0406 7.63672 22.6776C7.63672 21.3146 8.76772 20.1836 10.1307 20.1836C11.4937 20.1836 12.6247 21.3146 12.6247 22.6776C12.6247 24.0406 11.4937 25.1716 10.1307 25.1716ZM10.1307 21.3436C9.40572 21.3436 8.79672 21.9526 8.79672 22.6776C8.79672 23.4026 9.40572 24.0116 10.1307 24.0116C10.8557 24.0116 11.4647 23.4026 11.4647 22.6776C11.4647 21.9236 10.8557 21.3436 10.1307 21.3436Z" fill="white"/>
<path d="M23.496 24.5926C24.5531 24.5926 25.41 23.7357 25.41 22.6786C25.41 21.6216 24.5531 20.7646 23.496 20.7646C22.439 20.7646 21.582 21.6216 21.582 22.6786C21.582 23.7357 22.439 24.5926 23.496 24.5926Z" fill="#5A5A5A"/>
<path d="M23.4979 25.1726C22.1349 25.1726 21.0039 24.0416 21.0039 22.6786C21.0039 21.3156 22.1349 20.1846 23.4979 20.1846C24.8609 20.1846 25.9919 21.3156 25.9919 22.6786C25.9919 24.0416 24.8609 25.1726 23.4979 25.1726ZM23.4979 21.3446C22.7729 21.3446 22.1639 21.9536 22.1639 22.6786C22.1639 23.4036 22.7729 24.0126 23.4979 24.0126C24.2229 24.0126 24.8319 23.4036 24.8319 22.6786C24.8319 21.9246 24.2229 21.3446 23.4979 21.3446Z" fill="white"/>
</svg>
