<svg width="16" height="17" viewBox="0 0 16 17" fill="none" xmlns="http://www.w3.org/2000/svg">
<path d="M14.0903 16.9998H1.90873C1.69284 16.9998 1.4858 16.914 1.33314 16.7614C1.18049 16.6087 1.09473 16.4017 1.09473 16.1858V12.4898C1.09473 12.2739 1.18049 12.0669 1.33314 11.9142C1.4858 11.7615 1.69284 11.6758 1.90873 11.6758C2.12461 11.6758 2.33166 11.7615 2.48431 11.9142C2.63697 12.0669 2.72273 12.2739 2.72273 12.4898V15.372H13.2765V12.4898C13.2765 12.2739 13.3623 12.0669 13.5149 11.9142C13.6676 11.7615 13.8746 11.6758 14.0905 11.6758C14.3064 11.6758 14.5135 11.7615 14.6661 11.9142C14.8188 12.0669 14.9045 12.2739 14.9045 12.4898V16.1858C14.9044 16.4017 14.8185 16.6086 14.6659 16.7613C14.5132 16.9139 14.3062 16.9997 14.0903 16.9998Z" fill="url(#paint0_linear_12152_149167)"/>
<path d="M14.7279 6.29041L8.74733 0.309611C8.54904 0.111368 8.28013 0 7.99973 0C7.71934 0 7.45043 0.111368 7.25213 0.309611L1.27153 6.29041C1.07844 6.48975 0.971458 6.75701 0.973666 7.03453C0.975875 7.31204 1.0871 7.57757 1.28334 7.77381C1.47958 7.97005 1.7451 8.08127 2.02262 8.08348C2.30013 8.08569 2.56739 7.9787 2.76673 7.78561L6.94253 3.60981V12.7338C6.94253 13.0142 7.05392 13.2831 7.25218 13.4814C7.45044 13.6796 7.71935 13.791 7.99973 13.791C8.28012 13.791 8.54902 13.6796 8.74729 13.4814C8.94555 13.2831 9.05693 13.0142 9.05693 12.7338V3.60981L13.2327 7.78561C13.431 7.98385 13.6999 8.09522 13.9803 8.09522C14.2607 8.09522 14.5296 7.98385 14.7279 7.78561C14.8261 7.68745 14.904 7.57091 14.9572 7.44263C15.0104 7.31435 15.0377 7.17686 15.0377 7.03801C15.0377 6.89916 15.0104 6.76167 14.9572 6.63339C14.904 6.50512 14.8261 6.38857 14.7279 6.29041Z" fill="url(#paint1_linear_12152_149167)"/>
<defs>
<linearGradient id="paint0_linear_12152_149167" x1="-0.365925" y1="12.0341" x2="7.64167" y2="23.3161" gradientUnits="userSpaceOnUse">
<stop stop-color="#E1F5FE"/>
<stop offset="0.541667" stop-color="#FFCB67"/>
<stop offset="1" stop-color="#E1F5FE"/>
</linearGradient>
<linearGradient id="paint1_linear_12152_149167" x1="-0.513913" y1="0.928241" x2="18.1136" y2="11.2464" gradientUnits="userSpaceOnUse">
<stop stop-color="#E1F5FE"/>
<stop offset="0.541667" stop-color="#FFCB67"/>
<stop offset="1" stop-color="#E1F5FE"/>
</linearGradient>
</defs>
</svg>
