<?xml version="1.0" standalone="no"?>
<!DOCTYPE svg PUBLIC "-//W3C//DTD SVG 20010904//EN"
 "http://www.w3.org/TR/2001/REC-SVG-20010904/DTD/svg10.dtd">
<svg version="1.0" xmlns="http://www.w3.org/2000/svg"
 width="202.000000pt" height="81.000000pt" viewBox="0 0 202.000000 81.000000"
 preserveAspectRatio="xMidYMid meet">

<g transform="translate(0.000000,81.000000) scale(0.100000,-0.100000)"
fill="#000000" stroke="none">
<path d="M315 776 c-109 -35 -194 -105 -240 -199 -95 -196 -13 -427 185 -521
l65 -31 669 -3 c739 -3 729 -4 829 60 77 49 147 148 162 231 l7 37 -46 0 -46
0 0 63 c-1 109 -61 206 -158 254 l-57 28 -660 0 c-729 0 -698 3 -784 -65 -69
-55 -106 -132 -106 -222 0 -67 0 -68 -27 -68 -55 0 -67 35 -47 132 32 151 145
265 297 297 36 7 251 11 670 11 526 0 627 -2 677 -15 101 -27 187 -94 239
-185 14 -25 26 -40 26 -34 0 7 -18 38 -39 71 -42 62 -100 110 -178 146 -48 22
-50 22 -723 24 -527 2 -684 -1 -715 -11z m323 -93 c-15 -2 -42 -2 -60 0 -18 2
-6 4 27 4 33 0 48 -2 33 -4z m1037 -35 c38 -16 1 -17 -655 -17 -496 0 -690 3
-677 10 41 24 136 27 702 25 523 -1 595 -3 630 -18z m-1417 -471 c83 -58 72
-57 731 -57 l607 0 96 30 c96 30 131 55 175 126 6 10 12 14 12 8 1 -6 -13 -30
-29 -53 -34 -46 -105 -96 -160 -111 -47 -13 -1293 -13 -1340 0 -55 15 -126 65
-160 111 -16 23 -30 47 -30 52 0 6 14 -10 30 -35 17 -25 47 -57 68 -71z m1686
53 c-37 -69 -120 -143 -192 -172 l-57 -23 -620 1 c-417 1 -639 5 -678 12 -74
15 -170 61 -222 107 -40 36 -40 35 20 -5 33 -22 89 -50 125 -61 63 -19 90 -20
720 -17 l655 3 69 33 c85 40 149 91 179 142 32 57 34 40 1 -20z"/>
<path d="M1982 480 c0 -14 2 -19 5 -12 2 6 2 18 0 25 -3 6 -5 1 -5 -13z"/>
<path d="M1993 400 c0 -25 2 -35 4 -22 2 12 2 32 0 45 -2 12 -4 2 -4 -23z"/>
</g>
</svg>
