<svg width="24" height="24" viewBox="0 0 24 24" fill="none" xmlns="http://www.w3.org/2000/svg">
<path d="M12 22.5C9.21523 22.5 6.54451 21.3938 4.57538 19.4246C2.60625 17.4555 1.5 14.7848 1.5 12C1.5 9.21523 2.60625 6.54451 4.57538 4.57538C6.54451 2.60625 9.21523 1.5 12 1.5C14.7848 1.5 17.4555 2.60625 19.4246 4.57538C21.3938 6.54451 22.5 9.21523 22.5 12C22.5 14.7848 21.3938 17.4555 19.4246 19.4246C17.4555 21.3938 14.7848 22.5 12 22.5ZM12 24C15.1826 24 18.2348 22.7357 20.4853 20.4853C22.7357 18.2348 24 15.1826 24 12C24 8.8174 22.7357 5.76516 20.4853 3.51472C18.2348 1.26428 15.1826 0 12 0C8.8174 0 5.76516 1.26428 3.51472 3.51472C1.26428 5.76516 0 8.8174 0 12C0 15.1826 1.26428 18.2348 3.51472 20.4853C5.76516 22.7357 8.8174 24 12 24Z" fill="black"/>
<path d="M12.916 9.7539L10.1679 10.1957L10.0695 10.7807L10.6096 10.9085C10.9624 11.0163 11.032 11.1795 10.9552 11.6305L10.0695 16.9694C9.83674 18.3503 10.1955 19 11.0392 19C11.6932 19 12.4528 18.6121 12.7972 18.0794L12.9028 17.439C12.6628 17.7099 12.3124 17.8177 12.0796 17.8177C11.7496 17.8177 11.6296 17.5206 11.7148 16.9971L12.916 9.7539ZM13 6.53948C13 6.94777 12.8736 7.33934 12.6485 7.62805C12.4235 7.91676 12.1182 8.07895 11.8 8.07895C11.4817 8.07895 11.1765 7.91676 10.9514 7.62805C10.7264 7.33934 10.6 6.94777 10.6 6.53948C10.6 6.13118 10.7264 5.73961 10.9514 5.4509C11.1765 5.16219 11.4817 5 11.8 5C12.1182 5 12.4235 5.16219 12.6485 5.4509C12.8736 5.73961 13 6.13118 13 6.53948Z" fill="black"/>
</svg>
