<svg width="38" height="38" viewBox="0 0 38 38" fill="none" xmlns="http://www.w3.org/2000/svg">
<g clip-path="url(#clip0_719_114091)">
<path d="M38 0H0V38H38V0Z" fill="white"/>
<path d="M18.1619 17.2693C18.5856 17.5267 19.3484 17.5102 19.7612 17.2352L31.3532 9.52101C30.8913 9.14734 30.278 8.88714 29.6063 8.70196C29.6063 8.70196 22.9718 7.91799 18.7648 8.00771C14.5588 8.097 7.96302 9.16308 7.96302 9.16308C7.29086 9.38398 6.69281 9.66852 6.25006 10.0558L18.1619 17.2693Z" fill="black"/>
<path d="M32.2906 26.7969C32.4265 26.5134 32.5026 26.192 32.4952 25.8135L32.1832 11.176C32.1812 11.0979 32.1634 11.0297 32.1554 10.9559L22.8536 17.1463L32.2906 26.7969Z" fill="black"/>
<path d="M21.4667 18.0668L20.668 18.5991C20.1963 18.912 19.599 19.0774 18.9995 19.0906C18.4001 19.1027 17.7975 18.964 17.3133 18.6702L16.4987 18.1768L7.28691 28.4389C7.61801 28.6014 7.9856 28.7374 8.38211 28.8505C8.38211 28.8505 15.3529 29.6051 19.2217 29.4804C23.554 29.3651 30.0248 28.3899 30.0248 28.3899C30.422 28.2522 30.7843 28.0988 31.1059 27.925L21.4667 18.0668Z" fill="black"/>
<path d="M5.5105 11.5238C5.50544 11.5976 5.49089 11.6655 5.49282 11.7435L5.80478 26.3816C5.81275 26.7596 5.90615 27.0792 6.05791 27.3599L15.0744 17.3161L5.5105 11.5238Z" fill="black"/>
</g>
<defs>
<clipPath id="clip0_719_114091">
<rect width="38" height="38" rx="10" fill="white"/>
</clipPath>
</defs>
</svg>
